<?xml version="1.0" encoding="utf-8"?>
<!-- Generator: Adobe Illustrator 27.5.0, SVG Export Plug-In . SVG Version: 6.00 Build 0)  -->
<svg version="1.1" xmlns="http://www.w3.org/2000/svg" xmlns:xlink="http://www.w3.org/1999/xlink" x="0px" y="0px"
	 viewBox="0 0 3710 3710" style="enable-background:new 0 0 3710 3710;" xml:space="preserve">
<g id="Background">
	<g>
		<g>
			<rect style="fill:#FFFFFF;" width="3710" height="3710"/>
		</g>
	</g>
</g>
<g id="Illustration">
	<g>
		<path style="fill:#F4F7FA;" d="M1619.881,3154.245C914.027,3047.349,340.399,2379.979,444.615,1638.213
			c88.907-632.608,643.536-1124.914,1308.643-1171.404c48.16-3.375,96.876-4.419,146.043-2.992
			c371.039,10.717,700.706,159.127,944.527,383.706c242.674,223.501,400.338,522.441,429.045,836.066
			C3349.322,2518.018,2497.808,3287.204,1619.881,3154.245z"/>
		<g>
			<g>
				<g>
					<g>
						<defs>
							<path id="SVGID_1_" d="M2186.61,2573.655c-21.671-1.832-67.203-24.922-76.59-35.834
								c-62.472-72.621-188.269-200.991-186.789-302.249c0.253-17.293,76.629-36.717,86.731-53.026
								c45.689-24.203,63.04-29.765,95.173-74.112c94.863-130.924-144.755-358.278,118.121-453.552
								c192.553-69.786,360.449-9.818,326.031-312.01c-34.417-302.193,181.51-865.19,510.942-667.909
								c189.064,113.221,13.994,379.241,116.925,565.19c97.811,176.7,27.801,328.831-159.338,445.754
								c-187.139,116.922-80.918,195.741-17.539,364.97c76.133,203.28-239.517,253.863-387.236,264.785
								C2494.085,2324.456,2197.119,2427.106,2186.61,2573.655z"/>
						</defs>
						
							<linearGradient id="SVGID_00000061440565898423644940000014827932430932621733_" gradientUnits="userSpaceOnUse" x1="2407.3267" y1="870.8644" x2="2748.5608" y2="2616.0332">
							<stop  offset="0.0036" style="stop-color:#E38DDD"/>
							<stop  offset="1" style="stop-color:#9571F6"/>
						</linearGradient>
						
							<use xlink:href="#SVGID_1_"  style="overflow:visible;fill:url(#SVGID_00000061440565898423644940000014827932430932621733_);"/>
						<clipPath id="SVGID_00000072242741433776142450000002267908095505703311_">
							<use xlink:href="#SVGID_1_"  style="overflow:visible;"/>
						</clipPath>
						<g style="clip-path:url(#SVGID_00000072242741433776142450000002267908095505703311_);">
							<g>
								<path style="fill:#FCFDFE;" d="M2019.704,2395.278l-2.206-4.063c625.938-340.07,982.283-1014.66,953.221-1804.524
									l4.624-0.172c13.772,374.34-62.336,736.509-220.096,1047.352C2589.394,1960.665,2335.047,2223.954,2019.704,2395.278z"/>
								<path style="fill:#FCFDFE;" d="M3041.613,2131.737c-187.635-52.497-497.055-40.464-689.748,26.829l-1.523-4.366
									c193.45-67.555,504.11-79.628,692.516-26.917L3041.613,2131.737z"/>
								<path style="fill:#FCFDFE;" d="M2141.814,2327.115l-3.247-3.295c75.535-74.499,110.505-184.324,103.938-326.421
									c-4.814-104.192-31.435-222.987-79.124-353.092l4.344-1.59c47.849,130.546,74.565,249.806,79.4,354.467
									C2253.757,2140.648,2218.326,2251.653,2141.814,2327.115z"/>
								<path style="fill:#FCFDFE;" d="M2775.925,1588.88l-3.413-3.122c135.156-147.75,340.415-194.756,488.807-208.173l0.416,4.609
									C3114.157,1395.535,2910.079,1442.223,2775.925,1588.88z"/>
								<path style="fill:#FCFDFE;" d="M2925.751,1155.67l-4.624-0.131c6.349-225.496-131.75-417.847-214.633-512.435l3.479-3.05
									C2793.303,735.154,2932.144,928.595,2925.751,1155.67z"/>
							</g>
						</g>
					</g>
				</g>
			</g>
			<g>
				<g>
					<g>
						<defs>
							<path id="SVGID_00000065052608371576033410000009803249892078912138_" d="M2404.548,2846.203
								c-22.136,11.584-80.505,17.273-96.332,12.482c-105.325-31.88-306.403-78.759-367.392-177.823
								c-10.416-16.919,51.643-82.831,51.38-104.868c29.367-51.627,42.756-67.716,46.564-130.512
								c11.239-185.39-361.19-258.045-165.115-512.458c143.623-186.353,343.338-231.731,123.677-503.434
								c-219.661-271.704-357.442-950.547,83.507-962.411C2333.9,460.37,2328.2,826.158,2542.61,942.946
								c203.744,110.979,229.67,301.604,120.354,530.31c-109.316,228.705,42.238,239.622,208.001,364.586
								c199.117,150.109-75.664,393.736-212.118,495.391C2548.962,2415.093,2324.389,2697.671,2404.548,2846.203z"/>
						</defs>
						
							<linearGradient id="SVGID_00000145058981438846128290000010131923433664315270_" gradientUnits="userSpaceOnUse" x1="1620.0378" y1="1970.6329" x2="4343.5278" y2="507.4082">
							<stop  offset="0" style="stop-color:#FDF53F"/>
							<stop  offset="1" style="stop-color:#D93C65"/>
						</linearGradient>
						
							<use xlink:href="#SVGID_00000065052608371576033410000009803249892078912138_"  style="overflow:visible;fill:url(#SVGID_00000145058981438846128290000010131923433664315270_);"/>
						<clipPath id="SVGID_00000044172332894699979500000010132693066155732412_">
							<use xlink:href="#SVGID_00000065052608371576033410000009803249892078912138_"  style="overflow:visible;"/>
						</clipPath>
						<g style="clip-path:url(#SVGID_00000044172332894699979500000010132693066155732412_);">
							<g>
								<path style="fill:#FCFDFE;" d="M2132.796,2776.195l-4.644-2.578c397.084-715.524,326.617-1589.102-188.499-2336.818
									l4.375-3.017c244.127,354.365,393.629,752.343,432.342,1150.908C2417.072,2003.705,2332.844,2415.72,2132.796,2776.195z"/>
								<path style="fill:#FCFDFE;" d="M2960.883,1890.739c-214.242,64.789-506.752,267.208-652.048,451.23l-4.168-3.293
									c145.869-184.744,439.555-387.967,654.676-453.023L2960.883,1890.739z"/>
								<path style="fill:#FCFDFE;" d="M2209.137,2634.842l-5.178-1.192c27.289-118.78-6.52-246.795-100.487-380.484
									c-68.9-98.028-167.94-196.767-294.375-293.481l3.231-4.219c126.862,97.042,226.281,196.174,295.49,294.643
									C2202.69,2385.084,2236.779,2514.527,2209.137,2634.842z"/>
								<path style="fill:#FCFDFE;" d="M2368.678,1528.331l-5.233-0.922c39.923-226.541,209.906-398.645,345.474-503.133
									l3.244,4.211C2577.338,1132.4,2408.304,1303.468,2368.678,1528.331z"/>
								<path style="fill:#FCFDFE;" d="M2246.836,1016.044l-4.562,2.724c-132.863-222.492-385.308-323.805-523.961-364.394
									l1.491-5.101C1859.206,690.083,2113.043,791.994,2246.836,1016.044z"/>
							</g>
						</g>
					</g>
				</g>
			</g>
		</g>
		<g>
			<g>
				<g>
					<g>
						<path style="fill:#BFC8D6;" d="M574.598,2671.043c-51.574,3.075-93.767-30.384-93.767-74.6V1002.797
							c0-44.216,42.193-78.361,93.767-76.126l7.188,0.311l2377.918,174.585c37.865,1.641,68.525-37.987,68.525-0.382v1355.385
							c0,37.605-30.66,70.029-68.525,72.286L586.88,2656.046l-7.534,14.714L574.598,2671.043z"/>
						<path style="fill:#FFFFFF;" d="M596.033,2671.043c-51.574,3.075-93.767-30.384-93.767-74.6V1002.797
							c0-44.216,42.193-78.361,93.767-76.126l2385.106,103.345c37.865,1.641,68.525,33.564,68.525,71.169v1355.385
							c0,37.605-30.66,70.029-68.525,72.286L596.033,2671.043z"/>
						<path style="opacity:0.3;fill:#D8DEE8;" d="M2981.14,1061.913L596.034,963.794c-27.572-1.134-49.989,17.084-49.989,40.694
							v1239.437v350.114c0,23.611,22.417,41.463,49.989,39.88l2385.106-136.963c20.295-1.165,36.706-18.463,36.706-38.64V2148.48
							V1099.955C3017.846,1079.779,3001.435,1062.748,2981.14,1061.913z"/>
						<path style="fill:#D8DEE8;" d="M596.033,2498.535c-10.734,0.531-19.477-6.511-19.477-15.694V1005.666
							c0-9.183,8.742-16.31,19.477-15.884l2385.106,94.461c7.916,0.314,14.351,6.976,14.351,14.849v1266.546
							c0,7.874-6.435,14.6-14.351,14.991L596.033,2498.535z"/>
					</g>
					<path style="opacity:0.4;fill:#D8DEE8;" d="M2732.144,2430.212c-200.658-124.123-60.505-477.035-285.849-654.353
						c-227.189-178.769-546.871,40.49-706.012-144.646c-118.495-137.85,20.156-304.299-92.987-433.939
						c-177.433-203.305-631.647,76.307-840.327-123.983c-29.629-28.437-59.528-71.58-76.544-140.797l-134.392-5.823
						c-51.574-2.235-93.767,31.911-93.767,76.126v1593.647c0,44.216,42.193,77.674,93.767,74.6l2385.106-142.188
						c37.865-2.257,68.525-34.68,68.525-72.286v-24.097C2891.292,2486.212,2794.476,2468.769,2732.144,2430.212z"/>
				</g>
				<g>
					<polygon style="fill:#F4F7FA;" points="728.459,2378.056 1302.538,2354.103 1302.538,2053.133 728.459,2067.054 					"/>
					<g>
						<g style="opacity:0.7;">
							<polygon style="fill:#F4F7FA;" points="2266.366,1859.816 2353.583,1858.613 2353.583,1644.076 2266.366,1641.84 							"/>
							<polygon style="fill:#F4F7FA;" points="2108.969,1861.988 2197.879,1860.761 2197.879,1538.855 2108.969,1538.329 							"/>
							<polygon style="fill:#F4F7FA;" points="1948.493,1864.202 2039.145,1862.952 2039.145,1373.435 1948.493,1370.772 							"/>
							<polygon style="fill:#F4F7FA;" points="1784.848,1866.46 1877.293,1865.185 1877.293,1496.441 1784.848,1494.318 							"/>
							<polygon style="fill:#F4F7FA;" points="1617.943,1868.763 1712.235,1867.462 1712.235,1701.722 1617.943,1702.094 							"/>
							<polygon style="fill:#F4F7FA;" points="1447.673,1871.112 1543.869,1869.785 1543.869,1476.324 1447.673,1475.422 							"/>
							<polygon style="fill:#F4F7FA;" points="1273.939,1873.509 1372.096,1872.155 1372.096,1299.345 1273.939,1297.422 							"/>
							<polygon style="fill:#F4F7FA;" points="1096.637,1875.956 1196.816,1874.573 1196.816,1452.574 1096.637,1451.516 							"/>
							<polygon style="fill:#F4F7FA;" points="915.649,1878.453 1017.914,1877.042 1017.914,1215.7 915.649,1213.248 							"/>
							<polygon style="fill:#F4F7FA;" points="730.862,1881.002 835.278,1879.562 835.278,1136.797 730.862,1133.854 							"/>
						</g>
					</g>
					<polygon style="fill:#F4F7FA;" points="2433.679,2306.906 2862.706,2289.005 2862.706,2245.587 2433.679,2262.299 					"/>
					<polygon style="fill:#F4F7FA;" points="2433.679,1731.079 2862.706,1728.53 2862.706,1685.112 2433.679,1686.471 					"/>
					<polygon style="fill:#F4F7FA;" points="2433.679,1654.717 2862.706,1654.205 2862.706,1610.787 2433.679,1610.11 					"/>
					<polygon style="fill:#F4F7FA;" points="2433.679,2245.243 2503.597,2242.594 2503.597,2174.179 2433.679,2176.529 					"/>
					<g>
						<path style="fill:#F4F7FA;" d="M886.123,2188.61c36.468,1.375,41.885-19.74,77.79-21.785
							c60.898-3.467,75.813,55.801,134.494,54.896c47.901-0.74,59.954-40.755,107.376-36.32
							c35.251,3.296,42.19,26.764,76.557,30.133c6.862,0.672,13.613,0.41,20.197-0.553v139.123l-574.079,23.953v-246.151
							c30.772,2.217,53.236,9.179,69.324,16.231C836.484,2165.102,849.327,2187.222,886.123,2188.61z"/>
					</g>
					<polygon style="fill:#F4F7FA;" points="730.862,2032.91 2353.583,1996.667 2353.583,1928.641 730.862,1958.057 					"/>
					<polygon style="fill:#F4F7FA;" points="1372.096,2351.201 2353.583,2310.248 2353.583,2022.982 1372.096,2046.499 					"/>
				</g>
			</g>
			<g>
				<g>
					<defs>
						
							<ellipse id="SVGID_00000001661708727924201100000018152700500439563904_" transform="matrix(0.7071 -0.7071 0.7071 0.7071 -197.0771 2270.051)" cx="2641.655" cy="1372.919" rx="165.091" ry="165.091"/>
					</defs>
					<use xlink:href="#SVGID_00000001661708727924201100000018152700500439563904_"  style="overflow:visible;fill:#F4F7FA;"/>
					<clipPath id="SVGID_00000107546326734531446370000005833820799861079701_">
						<use xlink:href="#SVGID_00000001661708727924201100000018152700500439563904_"  style="overflow:visible;"/>
					</clipPath>
					<g style="opacity:0.74;clip-path:url(#SVGID_00000107546326734531446370000005833820799861079701_);">
						
							<linearGradient id="SVGID_00000039116831195290417450000009655588737073447063_" gradientUnits="userSpaceOnUse" x1="2733.2092" y1="1135.0723" x2="2452.7063" y2="1714.7781">
							<stop  offset="0" style="stop-color:#AA80F9"/>
							<stop  offset="0.9964" style="stop-color:#6165D7"/>
						</linearGradient>
						
							<circle style="fill:url(#SVGID_00000039116831195290417450000009655588737073447063_);" cx="2641.458" cy="1324.691" r="64.356"/>
						
							<linearGradient id="SVGID_00000183958589310825258950000012109356209947028905_" gradientUnits="userSpaceOnUse" x1="2812.3152" y1="1173.1008" x2="2532.1006" y2="1752.2111">
							<stop  offset="0" style="stop-color:#AA80F9"/>
							<stop  offset="0.9964" style="stop-color:#6165D7"/>
						</linearGradient>
						<path style="fill:url(#SVGID_00000183958589310825258950000012109356209947028905_);" d="M2518.234,1539.529
							c0-66.114,55.258-123.421,123.422-123.421c68.164,0,123.421,57.307,123.421,123.421H2518.234z"/>
					</g>
				</g>
			</g>
		</g>
		<g>
			
				<linearGradient id="SVGID_00000109020108124050346490000004759720242323157154_" gradientUnits="userSpaceOnUse" x1="4828.5063" y1="2907.6755" x2="4848.5762" y2="3163.1069" gradientTransform="matrix(-1 0 0 1 6151.9897 0)">
				<stop  offset="0.0036" style="stop-color:#26264F"/>
				<stop  offset="1" style="stop-color:#444B8C"/>
			</linearGradient>
			<path style="fill:url(#SVGID_00000109020108124050346490000004759720242323157154_);" d="M1287.18,3035.437
				c0,0,72.028,36.602,73.204,42.444c1.177,5.843-46.322-1.959-65.711-1.116c-19.391,0.843-35.342-5.565-33.587-14.747
				c1.756-9.185,8.543-32.28,8.543-32.28L1287.18,3035.437z"/>
			
				<linearGradient id="SVGID_00000092430200543691783710000010025219492679577782_" gradientUnits="userSpaceOnUse" x1="4876.1733" y1="3050.21" x2="4872.5347" y2="2786.3733" gradientTransform="matrix(-1 0 0 1 6151.9897 0)">
				<stop  offset="0" style="stop-color:#FFC444"/>
				<stop  offset="0.9964" style="stop-color:#F36F56"/>
			</linearGradient>
			<path style="fill:url(#SVGID_00000092430200543691783710000010025219492679577782_);" d="M1289.816,3005.733l-4.381,36.259
				c0,0-11.403,4.539-19.063-0.828l-3.268-39.767L1289.816,3005.733z"/>
			
				<linearGradient id="SVGID_00000031179002170885139370000018438909519986093984_" gradientUnits="userSpaceOnUse" x1="5166.481" y1="2877.8003" x2="5186.6035" y2="3133.9031" gradientTransform="matrix(-1 0 0 1 6151.9897 0)">
				<stop  offset="0.0036" style="stop-color:#26264F"/>
				<stop  offset="1" style="stop-color:#444B8C"/>
			</linearGradient>
			<path style="fill:url(#SVGID_00000031179002170885139370000018438909519986093984_);" d="M950.608,3006.602l-8.379,15.039
				c-2.343,4.205-3.04,9.267-1.917,14.06c2.929,12.506,8.78,36.876,11.332,43.231c3.474,8.655,50.086,13.797,50.086,13.797
				s4.157-6.539-5.521-14.438c-9.677-7.899-15.898-9.141-19.313-20.799c-3.415-11.656-5.694-44.627-5.694-44.627L950.608,3006.602z"
				/>
			
				<linearGradient id="SVGID_00000087384874044075444620000010475445877482286470_" gradientUnits="userSpaceOnUse" x1="5186.0801" y1="3045.4304" x2="5182.4414" y2="2781.627" gradientTransform="matrix(-1 0 0 1 6151.9897 0)">
				<stop  offset="0" style="stop-color:#FFC444"/>
				<stop  offset="0.9964" style="stop-color:#F36F56"/>
			</linearGradient>
			<path style="fill:url(#SVGID_00000087384874044075444620000010475445877482286470_);" d="M985.48,2968.389
				c-3.061,2.727-18.031,53.532-18.031,53.532s-4.846,6.927-14.051-3.297c-9.205-10.225-4.166-4.587-4.166-4.587l1.726-49.968
				L985.48,2968.389z"/>
			
				<linearGradient id="SVGID_00000092430239937197666630000003871664703047903935_" gradientUnits="userSpaceOnUse" x1="4193.5532" y1="2622.9961" x2="4367.9463" y2="2622.9961" gradientTransform="matrix(-1 0 0 1 5525.7271 0)">
				<stop  offset="0" style="stop-color:#AB316D"/>
				<stop  offset="1" style="stop-color:#792D3D"/>
			</linearGradient>
			<path style="fill:url(#SVGID_00000092430239937197666630000003871664703047903935_);" d="M1329.445,2277.265
				c3.8,108.16,3.955,225.671-1.612,351.208c-6.266,141.365-18.861,272.021-34.732,390.461c-5.9,0.211-12.1,0.245-18.577,0.042
				c-4.374-0.136-8.612-0.375-12.707-0.69c-8.236-24.56-17.972-56.855-26.69-95.432c-9.165-40.564-14.694-76.949-18.634-111.742
				c-13.87-122.507,2.384-133.194-8.872-223.984c-9.969-80.407-24.147-83.547-40.791-197.707
				c-18.058-123.867-4.615-142.451,1.922-149.163C1196.585,2211.68,1261.956,2231.137,1329.445,2277.265z"/>
			
				<linearGradient id="SVGID_00000025443183404843126460000003397485360673245086_" gradientUnits="userSpaceOnUse" x1="4205.6113" y1="2623.0042" x2="4367.9453" y2="2623.0042" gradientTransform="matrix(-1 0 0 1 5525.7271 0)">
				<stop  offset="0" style="stop-color:#AB316D"/>
				<stop  offset="1" style="stop-color:#792D3D"/>
			</linearGradient>
			<path style="opacity:0.3;fill:url(#SVGID_00000025443183404843126460000003397485360673245086_);" d="M1168.755,2240.26
				c26.544-27.26,87.247-10.757,151.36,30.846c-73.757,89.097-81.798,146.896-72.956,184.397
				c9.993,42.386,40.375,54.594,40.26,100.94c-0.143,56.956-46.117,72.043-45.14,132.313c0.647,39.854,20.849,39.439,25.62,88.663
				c5.645,58.241-20.748,78.31-12.199,121.401c3.678,18.539,14.174,42.762,44.07,67.717c-2.155,17.695-4.366,35.212-6.669,52.399
				c-5.898,0.208-12.098,0.244-18.575,0.039c-4.374-0.134-8.612-0.372-12.706-0.688c-8.237-24.56-17.973-56.854-26.69-95.43
				c-9.165-40.565-14.694-76.95-18.634-111.743c-13.87-122.506,2.384-133.194-8.872-223.984
				c-9.969-80.407-24.147-83.548-40.79-197.708C1148.776,2265.554,1162.218,2246.971,1168.755,2240.26z"/>
			
				<linearGradient id="SVGID_00000006702944149992134040000016639771502384074419_" gradientUnits="userSpaceOnUse" x1="4241.9678" y1="2603.7759" x2="4593.0391" y2="2603.7759" gradientTransform="matrix(-1 0 0 1 5525.7271 0)">
				<stop  offset="0" style="stop-color:#AB316D"/>
				<stop  offset="1" style="stop-color:#792D3D"/>
			</linearGradient>
			<path style="fill:url(#SVGID_00000006702944149992134040000016639771502384074419_);" d="M1283.759,2275.449
				c-63.508,103.897-132.008,233.201-193.267,387.973c-46.294,116.963-79.87,226.779-104.521,324.65
				c-3.336,1.727-11.205,5.171-21.26,3.685c-13.714-2.028-21.934-11.816-24.082-14.548c-10.033-70.16-8.928-129.58-5.522-172.464
				c2.181-27.458,6.039-73.182,21.692-129.629c17.533-63.23,29.587-66.784,52.46-133.678
				c23.742-69.434,17.991-86.761,40.727-173.653c9.339-35.696,24.975-88.815,50.774-152.355
				C1161.76,2235.437,1222.76,2255.444,1283.759,2275.449z"/>
			
				<linearGradient id="SVGID_00000160158721327862876790000009540396670771926445_" gradientUnits="userSpaceOnUse" x1="4492.5659" y1="1708.6586" x2="4828.0713" y2="2015.731" gradientTransform="matrix(-1 0 0 1 5525.7271 0)">
				<stop  offset="0.0036" style="stop-color:#26264F"/>
				<stop  offset="1" style="stop-color:#444B8C"/>
			</linearGradient>
			<path style="fill:url(#SVGID_00000160158721327862876790000009540396670771926445_);" d="M1300.66,1824.022
				c70.124-45.8,100.173-40.519,120.503-81.653c20.107-40.687,20.063-105.241-13.213-139.439
				c-2.443-2.512-27.789-27.75-62.088-23.426c-51.877,6.543-55.696,72.078-113.884,102.101
				c-49.304,25.442-103.073,7.548-139.46-4.563c-87.623-29.161-100.634-84.321-146.065-75.529
				c-56.927,11.016-61.963,102.55-118.677,108.189c-37.906,3.768-46.935-35.997-96.768-46.948
				c-58.556-12.87-122.809,25.178-158.845,71.444c-65.865,84.566-48.515,210.787-7.303,287.836
				c33.856,63.298,106.651,136.107,167.974,120.444c48.446-12.374,64.219-73.442,105.897-67.365
				c29.632,4.323,30.704,36.511,65.729,53.077c57.516,27.206,128.521-24.646,147.89-38.79
				c55.206-40.315,46.413-66.098,117.598-146.92C1198.068,1910.557,1238.562,1864.577,1300.66,1824.022z"/>
			
				<linearGradient id="SVGID_00000045596945567057072660000009631748314684036535_" gradientUnits="userSpaceOnUse" x1="3660.3669" y1="1621.1324" x2="3722.8179" y2="1621.1324" gradientTransform="matrix(-1 0 0 1 5525.7271 0)">
				<stop  offset="0" style="stop-color:#FFC444"/>
				<stop  offset="0.9964" style="stop-color:#F36F56"/>
			</linearGradient>
			<path style="fill:url(#SVGID_00000045596945567057072660000009631748314684036535_);" d="M1802.909,1645.881
				c0,0,11.85-16.582,19.37-28.903c7.519-12.322,42.621-46.941,42.621-46.941s2.674,5.493-4.882,14.284
				c-7.556,8.79-23.458,23.855-19.802,30.228c3.656,6.374,13.949,11.992,6.521,24.027c-7.428,12.034-20.345,3.816-26.949,13.469
				c-6.603,9.653-13.367,20.183-13.367,20.183L1802.909,1645.881z"/>
			
				<linearGradient id="SVGID_00000125602808492846965140000015311713214524200067_" gradientUnits="userSpaceOnUse" x1="1588.2614" y1="1837.1375" x2="1339.599" y2="2676.8225">
				<stop  offset="0" style="stop-color:#AA80F9"/>
				<stop  offset="0.9964" style="stop-color:#6165D7"/>
			</linearGradient>
			<path style="fill:url(#SVGID_00000125602808492846965140000015311713214524200067_);" d="M1798.284,1635.062
				c7.992,13.522,15.986,27.038,23.979,40.559c-8.322,27.178-22.665,64.918-47.794,104.735
				c-11.084,17.564-45.451,69.09-103.636,110.527c-79.207,56.405-223.509,109.029-265.751,49.005
				c-37.694-53.559,23.146-172.276,34.35-193.59c22.675,11.887,59.938,27.654,107.835,31.383
				c15.697,1.223,56.554,4.007,102.582-11.802C1735.034,1736.622,1782.326,1662.778,1798.284,1635.062z"/>
			
				<linearGradient id="SVGID_00000095317580205894843390000008693374714552257443_" gradientUnits="userSpaceOnUse" x1="1275.8301" y1="1744.6145" x2="1027.1686" y2="2584.2969">
				<stop  offset="0" style="stop-color:#AA80F9"/>
				<stop  offset="0.9964" style="stop-color:#6165D7"/>
			</linearGradient>
			<path style="fill:url(#SVGID_00000095317580205894843390000008693374714552257443_);" d="M1531.845,1816.277
				c-3.986,20.029-66.284,9.288-79.141,45.644c-6.899,19.509,7.749,31.901,8.363,65.033c0.688,37.092-16.992,58.156-30.554,87.335
				c-19.863,42.737-19.936,84.632-20.085,168.415c-0.209,119.266,26.162,143.248,3.652,181.686
				c-29.301,50.033-99.661,53.227-118.677,54.094c-65.038,2.954-72.754-31.595-143.325-35.722
				c-80.598-4.712-92.077,39.095-149.716,20.412c-52.655-17.069-70.374-62.474-111.374-53.072
				c-25.626,5.873-32.421,26.757-56.6,24.496c-24.295-2.273-49.411-26.35-51.122-51.038c-2.128-30.687,31.417-69.345,83.987-69.406
				c20.889,8.199,55.517,17.702,94.029,7.147c63.099-17.295,95.919-77.287,132.37-143.917
				c25.218-46.093,71.567-130.814,72.119-241.904c0.228-45.812-7.516-59.215,3.651-83.699
				c36.261-79.512,176.943-67.647,188.856-66.498C1454.138,1734.522,1536.658,1792.092,1531.845,1816.277z"/>
			<g>
				
					<linearGradient id="SVGID_00000033347867852658951490000017773706506733951364_" gradientUnits="userSpaceOnUse" x1="4118.1348" y1="2012.6672" x2="4008.8511" y2="2193.8088" gradientTransform="matrix(-1 0 0 1 5525.7271 0)">
					<stop  offset="0.0036" style="stop-color:#6165D7"/>
					<stop  offset="1" style="stop-color:#AA80F9"/>
				</linearGradient>
				<path style="fill:url(#SVGID_00000033347867852658951490000017773706506733951364_);" d="M1563.274,1916.346l-176.704,7.711
					c-1.94,0.084-3.64,1.476-4.298,3.518l-83.242,258.191c-1.194,3.704,2.549,12.967,6.049,12.547l174.704-26.573
					c1.776-0.214,3.297-1.521,3.938-3.385l86.605-240.993C1571.555,1923.787,1566.695,1916.196,1563.274,1916.346z"/>
				
					<linearGradient id="SVGID_00000098904085455355924560000000151289922154821531_" gradientUnits="userSpaceOnUse" x1="4192.437" y1="2006.151" x2="3921.6904" y2="2150.2578" gradientTransform="matrix(-1 0 0 1 5525.7271 0)">
					<stop  offset="0" style="stop-color:#FF9085"/>
					<stop  offset="1" style="stop-color:#FB6FBB"/>
				</linearGradient>
				<path style="fill:url(#SVGID_00000098904085455355924560000000151289922154821531_);" d="M1566.016,1922.665l-176.704,7.71
					c-1.94,0.084-3.641,1.476-4.298,3.518l-83.242,258.191c-1.194,3.703,1.493,7.526,4.993,7.105l175.76-21.132
					c1.777-0.213,3.298-1.521,3.939-3.385l84.185-244.77C1571.879,1926.329,1569.437,1922.516,1566.016,1922.665z"/>
				
					<linearGradient id="SVGID_00000069378894233137855520000011176304795322643328_" gradientUnits="userSpaceOnUse" x1="4069.3545" y1="1822.7595" x2="4037.2222" y2="1927.9202" gradientTransform="matrix(-1 0 0 1 5525.7271 0)">
					<stop  offset="0.0036" style="stop-color:#26264F"/>
					<stop  offset="1" style="stop-color:#444B8C"/>
				</linearGradient>
				<path style="fill:url(#SVGID_00000069378894233137855520000011176304795322643328_);" d="M1517.696,1932.281l6.809-20.583
					c0.615-1.858-0.615-3.833-2.387-3.833h-64.32c-1.109,0-2.09,0.802-2.426,1.985l-6.467,22.766
					c-0.531,1.87,0.749,3.766,2.503,3.705l63.978-2.184C1516.422,1934.103,1517.336,1933.368,1517.696,1932.281z"/>
				
					<linearGradient id="SVGID_00000099660708992805732070000005962410225286016930_" gradientUnits="userSpaceOnUse" x1="4181.9678" y1="1988.7932" x2="3912.592" y2="2132.1707" gradientTransform="matrix(-1 0 0 1 5525.7271 0)">
					<stop  offset="0" style="stop-color:#FF9085"/>
					<stop  offset="1" style="stop-color:#FB6FBB"/>
				</linearGradient>
				<path style="opacity:0.3;fill:url(#SVGID_00000099660708992805732070000005962410225286016930_);" d="M1408.922,2136.689
					c11.478-41.613-7.412-68.711,11.868-101.049c27.271-45.739,85.857-26.38,104.071-63.287c4.912-9.952,7.261-24.783,0.635-47.922
					l40.52-1.765c3.422-0.149,5.863,3.66,4.634,7.237l-84.185,244.769c-0.642,1.866-2.162,3.17-3.939,3.385l-106.819,12.847
					C1394.731,2172.352,1404.258,2153.603,1408.922,2136.689z"/>
			</g>
			
				<linearGradient id="SVGID_00000117648155583789571810000014100797052426718899_" gradientUnits="userSpaceOnUse" x1="4147.2373" y1="2100.4224" x2="4245.8428" y2="2100.4224" gradientTransform="matrix(-1 0 0 1 5525.7271 0)">
				<stop  offset="0" style="stop-color:#FFC444"/>
				<stop  offset="0.9964" style="stop-color:#F36F56"/>
			</linearGradient>
			<path style="fill:url(#SVGID_00000117648155583789571810000014100797052426718899_);" d="M1279.884,2105.768
				c0,0,26.702-5.939,37-13.185c10.299-7.251,21.219-18.895,36.402-18.261c15.183,0.64,30.462,9.268,23.448,11.25
				c-7.015,1.979-20.115,17.535-30.125,23.66c-10.009,6.125-32.88,6.677-37.14,6.344c-4.259-0.333-21.073,10.972-21.073,10.972
				L1279.884,2105.768z"/>
			
				<linearGradient id="SVGID_00000173158676319067456150000003143419465193995192_" gradientUnits="userSpaceOnUse" x1="4102.5493" y1="2099.7319" x2="4742.5571" y2="2099.7319" gradientTransform="matrix(-1 0 0 1 5525.7271 0)">
				<stop  offset="0" style="stop-color:#AA80F9"/>
				<stop  offset="0.9964" style="stop-color:#6165D7"/>
			</linearGradient>
			<path style="opacity:0.3;fill:url(#SVGID_00000173158676319067456150000003143419465193995192_);" d="M867.252,2254.155
				c20.889,8.199,55.517,17.702,94.029,7.147c63.099-17.295,95.92-77.287,132.37-143.917
				c25.218-46.093,71.567-130.814,72.119-241.904c0.228-45.812-7.516-59.215,3.651-83.699c1.777-3.893,3.872-7.512,6.122-10.981
				c27.546,20.819,38.227,41.667,41.349,59.974c7.597,44.556-28.228,80.99-9.586,119.421c17.856,36.81,62.002,26.626,71.207,58.18
				c9.93,34.041-38.927,54.572-41.081,107.173c-2.586,63.126,65.303,94.04,53.404,136.263
				c-10.313,36.594-67.126,33.958-67.098,53.586c0.034,23.336-1.756-24.849,67.098-53.586
				c20.867-8.708,119.077,63.778,131.013,51.056c2.57,20.567,2.107,34.658-7.771,51.524
				c-29.301,50.033-99.661,53.227-118.677,54.094c-65.038,2.954-72.754-31.595-143.325-35.722
				c-80.598-4.712-92.076,39.095-149.716,20.412c-52.655-17.069-70.374-62.474-111.374-53.072
				c-25.626,5.873-32.421,26.757-56.6,24.496c-24.295-2.273-49.411-26.35-51.122-51.038
				C781.137,2292.874,814.683,2254.216,867.252,2254.155z"/>
			
				<linearGradient id="SVGID_00000181072988162653350350000011827847810787988400_" gradientUnits="userSpaceOnUse" x1="1241.7155" y1="1734.5121" x2="993.0531" y2="2574.1973">
				<stop  offset="0" style="stop-color:#AA80F9"/>
				<stop  offset="0.9964" style="stop-color:#6165D7"/>
			</linearGradient>
			<path style="fill:url(#SVGID_00000181072988162653350350000011827847810787988400_);" d="M1280.568,2093.396
				c8.217,16.333,16.432,32.66,24.648,48.993c-12.667,6.938-148.093,78.58-246.255,7.656c-12.137-8.768-44.393-32.074-61.779-77.713
				c-19.162-50.302-8.414-97.071-1.44-127.447c17.261-75.195,66.077-154.073,135.338-185.764
				c26.456-12.105,57.866-18.229,87.411-23.989c25.055-4.886,64.433-10.873,65.272-6.632c0.41,2.069-8.741,4.712-15.095,8.732
				c-39.027,24.681,10.524,126.616-35.343,175.501c-43.938,46.828-100.963,39.096-110.153,81.535
				c-4.273,19.73,4.571,37.48,8.511,45.387C1153.668,2083.773,1212.844,2103.521,1280.568,2093.396z"/>
			
				<linearGradient id="SVGID_00000147910136554257206350000003629662653304496797_" gradientUnits="userSpaceOnUse" x1="4386.4238" y1="2332.4277" x2="4512.6089" y2="2149.2559" gradientTransform="matrix(-0.9787 -0.2054 -0.2054 0.9787 6140.542 371.9818)">
				<stop  offset="0" style="stop-color:#FFC444"/>
				<stop  offset="0.9964" style="stop-color:#F36F56"/>
			</linearGradient>
			<path style="fill:url(#SVGID_00000147910136554257206350000003629662653304496797_);" d="M1372.487,1651.969
				c0,0-15.904,51.695-35.712,59.747c-19.808,8.045-51.121,17.284-55.052,20.867c-3.929,3.574,105.237,43.209,166.446,24.967l0,0
				c-17.441-8.533-22.107-11.26-22.107-11.26c-4.657-2.727-13.346-7.803-21.495-15.874c-5.548-5.49-14.234-15.711-20.771-32.696
				l5.721-29.349L1372.487,1651.969z"/>
			
				<linearGradient id="SVGID_00000021804818072607583640000017331602009589065139_" gradientUnits="userSpaceOnUse" x1="4372.1079" y1="2242.5303" x2="4595.124" y2="2108.2651" gradientTransform="matrix(-0.9787 -0.2054 -0.2054 0.9787 6140.542 371.9818)">
				<stop  offset="0" style="stop-color:#FFC444"/>
				<stop  offset="0.9964" style="stop-color:#F36F56"/>
			</linearGradient>
			<path style="fill:url(#SVGID_00000021804818072607583640000017331602009589065139_);" d="M1365.346,1674.537
				c0,0,9.22,22.91,31.079,19.394c19.575-3.148,18.578-58.201,5.28-67.574c-4.434-3.125-13.434-4.315-20.113-1.581
				c-4.697,1.921-18.678,14.723-15.562,33.478c-4.314-2.566-8.61-2.164-10.099,0.143c-1.893,2.924,1.173,8.23,1.867,9.431
				C1360.204,1671.994,1363.707,1673.824,1365.346,1674.537z"/>
		</g>
		<path style="opacity:0.3;fill:#BFC8D6;" d="M1811.952,1880.462c0,0-61.829,82.042-63.423,207.634l-24.226,519.698h101.564
			L1811.952,1880.462z"/>
		<g>
			<g>
				<g>
					
						<linearGradient id="SVGID_00000082328594013678325600000008197708816411915136_" gradientUnits="userSpaceOnUse" x1="158.9282" y1="2377.9258" x2="1491.6501" y2="2377.9258">
						<stop  offset="0" style="stop-color:#311944"/>
						<stop  offset="1" style="stop-color:#893976"/>
					</linearGradient>
					<path style="fill:url(#SVGID_00000082328594013678325600000008197708816411915136_);" d="M3046.164,1863.341l-60.25-1.117
						l-55.17-1.009l-140.998-2.631l-56.372-1.045l-95.36-1.766l-57.466-1.045l-305.359-5.694l-60.26-1.117l-300.2-5.55
						l-26.825-0.505c-51.138-0.937-94.073,35.966-94.073,82.419v907.904c0,46.453,42.786,82.022,93.96,79.5l27.829-1.406v3.728
						h0.044l1.262-3.9l415.193-25.915l713.251-43.248c43.678-2.126,81.183-24.364,81.183-66.96v-832.116
						C3126.553,1899.307,3089.88,1864.134,3046.164,1863.341z M2841.731,1907.415c4.325,0.072,8.541,0.505,12.65,1.298
						c22.2,4.144,40.794,18.091,50.742,36.939c5.045,9.478,7.892,20.181,7.892,31.533c0,12.361-3.387,23.929-9.335,33.912
						c-10.234,17.298-28.144,29.803-49.336,33.299c-4.072,0.685-8.288,1.045-12.613,1.009
						c-39.677-0.252-71.967-31.461-71.967-69.769C2769.764,1937.327,2802.054,1906.802,2841.731,1907.415z M2488.163,1901.974
						c4.505,0.072,8.938,0.504,13.226,1.297c23.066,4.216,42.417,18.307,52.939,37.335c5.478,9.838,8.541,21.01,8.541,32.794
						c0,12.469-3.459,24.182-9.514,34.272c-10.702,17.983-29.622,30.957-52.039,34.56c-4.251,0.685-8.649,1.045-13.154,1.009
						c-41.551-0.252-75.426-32.218-75.426-71.427C2412.737,1932.606,2446.612,1901.325,2488.163,1901.974z M2117.405,1896.28
						c4.756,0.072,9.442,0.54,13.947,1.369c24.396,4.36,44.831,19.028,55.75,38.777c5.55,9.946,8.686,21.19,8.686,33.047
						c0,12.974-3.713,25.154-10.308,35.605c-11.242,18.091-30.884,31.173-54.127,34.849c-4.505,0.757-9.191,1.117-13.947,1.081
						c-43.606-0.288-79.176-33.047-79.176-73.229C2038.229,1927.632,2073.799,1895.595,2117.405,1896.28z"/>
					
						<linearGradient id="SVGID_00000058559315388430409590000017767687901177533570_" gradientUnits="userSpaceOnUse" x1="1821.6689" y1="1987.4238" x2="3147.4316" y2="1987.4238">
						<stop  offset="0" style="stop-color:#FF9085"/>
						<stop  offset="1" style="stop-color:#FB6FBB"/>
					</linearGradient>
					<path style="fill:url(#SVGID_00000058559315388430409590000017767687901177533570_);" d="M3069.613,1863.773l-84.39-1.586
						l-54.825-1.009l-140.825-2.595l-56.286-1.081l-95.316-1.766l-57.444-1.045l-305.349-5.694l-60.254-1.117l-154.855-2.883
						l-61.949-1.153l-80.04-1.478c-1.117-0.036-2.235-0.036-3.352,0c-20.036,0.216-38.704,6.018-53.589,16.253
						c-0.107,0.072-0.215,0.144-0.324,0.216c-19.532,13.55-32.937,33.876-35.281,57.481c-0.144,1.622-2.004,3.279-2.076,4.937
						c-0.035,0.829-1.788,1.658-1.788,2.487v208.768l199.24-5.55l1102.099-31.029l24.424-0.648v-154.026
						C3147.432,1898.766,3113.146,1864.566,3069.613,1863.773z M2938.025,1977.473c0,4.217-0.396,8.325-1.19,12.325
						c-5.983,31.93-34.92,55.967-69.878,55.751c-4.288-0.036-8.505-0.396-12.613-1.153c-33.552-5.91-59.137-34.38-59.137-68.472
						c0-34.092,25.586-62.021,59.174-67.211c4.072-0.685,8.288-0.973,12.576-0.901c19.604,0.288,37.372,8.18,50.201,20.758
						C2930.061,1941.183,2938.025,1958.481,2938.025,1977.473z M2589.069,1973.725c0,4.072-0.361,8.036-1.08,11.893
						c-5.983,33.047-36.506,58.021-73.375,57.805c-4.54-0.036-8.973-0.433-13.298-1.189c-25.623-4.505-46.813-21.19-56.364-43.462
						c-3.567-8.217-5.548-17.226-5.548-26.668c0-15.208,5.117-29.227,13.766-40.615c11.207-14.776,28.397-25.191,48.219-28.218
						c4.288-0.649,8.721-0.973,13.226-0.901c20.326,0.324,38.706,8.253,52.111,20.83
						C2580.528,1936.137,2589.069,1954.048,2589.069,1973.725z M2223.249,1969.797c0,4.433-0.433,8.793-1.299,12.974
						c-6.595,33.443-38.415,58.598-76.795,58.381c-4.723-0.036-9.335-0.432-13.803-1.225c-36.939-6.199-65.122-36.074-65.122-71.824
						c0-35.786,28.183-65.049,65.122-70.454c4.468-0.721,9.08-1.009,13.803-0.937c21.549,0.324,41.011,8.613,55.137,21.803
						C2214.491,1931.705,2223.249,1949.868,2223.249,1969.797z"/>
					<path style="fill:#FFFFFF;" d="M3147.432,2089.227v683.856c0,4-0.193,7.928-0.806,11.785
						c-5.729,37.191-38.116,67.066-77.613,68.976l-736.414,36.038l-415.684,22.208l-0.71,1.918h-0.577
						c-46.056,0-84.891-29.091-91.235-69.093c-0.648-4-2.724-9.991-2.724-14.171v-745.661l187.095,0.576l1114.244,3.496
						L3147.432,2089.227z"/>
					<g>
						<path style="fill:#BFC8D6;" d="M2689.316,2208.346c0-10.187-7.635-18.398-18.336-18.359l-113.601,0.473
							c-10.873,0.039-24.425,8.495-24.425,18.783v103.852c0,10.288,14.076,18.427,24.948,18.287l110.465-1.453
							c10.702-0.138,20.95-8.56,20.95-18.747V2208.346z"/>
						<path style="fill:#BFC8D6;" d="M2886.597,2207.386c0-10.055-8.738-18.147-19.163-18.11l-105.532,0.428
							c-10.588,0.038-18.651,8.346-18.651,18.497v102.466c0,10.151,7.922,18.243,18.509,18.106l106.004-1.4
							c10.425-0.134,18.833-8.43,18.833-18.485V2207.386z"/>
						<path style="fill:#BFC8D6;" d="M3082.57,2206.465c0-9.923-9.004-17.916-19.156-17.879l-103.918,0.336
							c-10.309,0.037-19.323,8.154-19.323,18.17v101.113c0,10.017,8.625,18.076,18.934,17.943l104.176-1.324
							c10.152-0.131,19.287-8.275,19.287-18.198V2206.465z"/>
						<path style="fill:#BFC8D6;" d="M2689.316,2396.441c0-10.188-7.635-18.302-18.336-18.129l-113.601,1.845
							c-10.873,0.175-24.425,8.751-24.425,19.039v103.852c0,10.288,14.076,18.301,24.948,18.025l110.465-2.811
							c10.702-0.271,20.95-8.798,20.95-18.985V2396.441z"/>
						
							<linearGradient id="SVGID_00000064331900136778970680000015223458590869514164_" gradientUnits="userSpaceOnUse" x1="2743.2505" y1="2445.5618" x2="2886.5967" y2="2445.5618">
							<stop  offset="0" style="stop-color:#FF9085"/>
							<stop  offset="1" style="stop-color:#FB6FBB"/>
						</linearGradient>
						<path style="fill:url(#SVGID_00000064331900136778970680000015223458590869514164_);" d="M2886.597,2393.042
							c0-10.055-8.738-18.052-19.163-17.884l-105.532,1.74c-10.588,0.17-18.651,8.571-18.651,18.722v102.466
							c0,10.151,7.922,18.145,18.509,17.876l106.004-2.712c10.425-0.265,18.833-8.651,18.833-18.706V2393.042z"/>
						<path style="fill:#BFC8D6;" d="M3082.57,2389.668c0-9.923-9.004-17.817-19.156-17.654l-103.918,1.623
							c-10.309,0.166-19.323,8.382-19.323,18.398v101.113c0,10.017,8.625,17.975,18.934,17.713l104.176-2.61
							c10.152-0.258,19.287-8.5,19.287-18.422V2389.668z"/>
						<path style="fill:#BFC8D6;" d="M2065.006,2407.395c0-10.61-10.216-19.098-21.827-18.911l-117.322,1.806
							c-11.805,0.19-20.526,8.938-20.526,19.658v108.208c0,10.72,8.304,19.249,20.11,18.949l118.373-2.93
							c11.611-0.295,21.193-9.065,21.193-19.676V2407.395z"/>
						<path style="fill:#BFC8D6;" d="M2278.619,2403.546c0-10.466-8.233-18.793-19.527-18.612l-116.576,1.875
							c-11.48,0.185-22.434,8.93-22.434,19.501v106.712c0,10.572,11.419,18.877,22.898,18.586l115.069-2.932
							c11.295-0.287,20.571-9.018,20.571-19.484V2403.546z"/>
						<path style="fill:#BFC8D6;" d="M2484.676,2400.197c0-10.326-8.348-18.648-19.343-18.471l-114.868,1.8
							c-11.175,0.18-23.234,8.781-23.234,19.211v105.284c0,10.43,12.34,18.597,23.514,18.313l112.963-2.771
							c10.996-0.279,20.967-8.807,20.967-19.133V2400.197z"/>
						<path style="fill:#BFC8D6;" d="M2689.316,2584.535c0-10.188-7.635-18.205-18.336-17.899l-113.601,3.218
							c-10.873,0.311-24.425,9.008-24.425,19.296v103.851c0,10.288,14.076,18.175,24.948,17.762l110.465-4.169
							c10.702-0.406,20.95-9.036,20.95-19.223V2584.535z"/>
						<path style="fill:#BFC8D6;" d="M2886.597,2578.698c0-10.055-8.738-17.956-19.163-17.658l-105.532,3.052
							c-10.588,0.303-18.651,8.796-18.651,18.947v102.466c0,10.151,7.922,18.047,18.509,17.646l106.004-4.024
							c10.425-0.395,18.833-8.872,18.833-18.927V2578.698z"/>
						<path style="fill:#BFC8D6;" d="M2065.006,2603.298c0-10.61-10.216-18.968-21.827-18.636l-117.322,3.283
							c-11.805,0.338-20.526,9.205-20.526,19.924v108.208c0,10.72,8.304,19.137,20.11,18.69l118.373-4.418
							c11.611-0.44,21.193-9.337,21.193-19.948V2603.298z"/>
						<path style="fill:#BFC8D6;" d="M2278.619,2596.782c0-10.466-8.233-18.691-19.527-18.368l-116.576,3.316
							c-11.48,0.328-22.434,9.194-22.434,19.765v106.712c0,10.572,11.419,18.751,22.898,18.316l115.069-4.363
							c11.295-0.428,20.571-9.266,20.571-19.732V2596.782z"/>
						<path style="fill:#BFC8D6;" d="M2484.676,2590.85c0-10.326-8.348-18.541-19.343-18.227l-114.868,3.213
							c-11.175,0.32-23.234,9.047-23.234,19.477v105.285c0,10.43,12.34,18.468,23.514,18.045l112.963-4.174
							c10.996-0.417,20.967-9.059,20.967-19.385V2590.85z"/>
					</g>
					<path style="fill:#FFFFFF;" d="M2137.835,1702.827c-73.162-2.034-133.837,56.89-139.713,141.068l61.944,1.151
						c5.047-50.282,38.676-88.149,77.769-87.2c42.191,1.024,77.659,47.624,77.659,102.029c0,54.403-35.468,99.85-77.659,99.371
						c-21.996-0.25-42.258-13.038-56.695-32.907c-8.37,11.34-22.804,37.327-9.139,68.771c19.683,11.99,42.105,18.872,65.834,19.058
						c76.252,0.597,137.739-68.018,137.739-153.215C2275.574,1775.754,2214.087,1704.947,2137.835,1702.827z"/>
					<path style="fill:#FFFFFF;" d="M2507.011,1712.907c-69.755-1.94-127.592,55.626-133.193,137.811l59.046,1.098
						c4.811-49.097,36.873-86.088,74.147-85.183c40.234,0.977,74.06,46.466,74.06,99.599c0,53.13-33.826,97.524-74.06,97.067
						c-20.973-0.238-40.292-12.719-54.056-32.116c-7.98,11.075-21.74,36.452-8.713,67.15c18.765,11.703,40.143,18.419,62.769,18.596
						c72.718,0.569,131.367-66.458,131.367-149.669C2638.378,1784.047,2579.729,1714.929,2507.011,1712.907z"/>
					<path style="fill:#FFFFFF;" d="M2860.308,1722.917c-66.521-1.85-121.667,54.395-127.007,134.644l56.297,1.047
						c4.588-47.945,35.161-84.084,70.709-83.221c38.375,0.932,70.642,45.343,70.642,97.238c0,51.893-32.267,95.262-70.642,94.826
						c-20.002-0.227-38.426-12.41-51.551-31.348c-7.609,10.818-20.73,35.601-8.308,65.575c17.895,11.425,38.281,17.979,59.86,18.148
						c69.362,0.543,125.316-64.939,125.316-146.22C2985.624,1792.322,2929.67,1724.846,2860.308,1722.917z"/>
					<path style="opacity:0.3;fill:#BFC8D6;" d="M3147.432,2745.117v27.965c0,4-0.193,7.928-0.806,11.785
						c-5.624,37.191-37.504,67.066-76.966,68.976l-737.061,36.038l-415.684,22.208c-0.433,0-0.819,1.918-1.25,1.918h-0.037
						c-45.767,0-84.784-29.307-91.235-69.093c-0.648-4-2.724-9.991-2.724-14.171V1923.74c0-0.829,1.753-1.658,1.788-2.487
						c0.072-1.658,1.056-3.315,1.2-4.937c2.27-23.677,15.826-44.363,35.36-57.913c0.215,0.072,0.687,0.144,0.902,0.216
						c46.707,15.316,106.531,59.174,137.163,180.19c4.144,16.325,8.272,31.966,12.38,46.849c4.001,14.451,8.064,28.182,12.173,41.3
						c47.318,150.711,107.443,214.642,283.885,205.164c129.881-6.955,229.567-4.469,292.382,47.354
						c1.008,0.793,2.022,1.657,3.032,2.522c22.487,19.425,40.147,45.552,52.616,80.365c5.948,16.577,10.705,35.137,14.237,55.859
						c0.144,0.721,0.289,1.478,0.396,2.234c6.307,37.948,34.201,61.408,74.059,77.95c0.324,0.144,0.648,0.252,0.971,0.396
						c39.102,16.037,89.736,25.479,142.387,35.642c0.54,0.072,1.045,0.18,1.585,0.288c84.724,16.325,177.92,34.488,235.795,85.194
						c4.938,4.288,9.565,8.865,13.961,13.694C3141.291,2737.297,3147.432,2741.117,3147.432,2745.117z"/>
				</g>
			</g>
		</g>
		<path style="opacity:0.3;fill:#BFC8D6;" d="M3147.432,2769.695v3.387c0,4-0.193,7.928-0.806,11.785
			c-5.624,37.191-37.504,67.066-76.966,68.976l-737.061,36.038c-0.215-2.198-0.347-4.433-0.491-6.631
			c-0.649-9.082-0.932-18.235-0.967-27.461c-0.109-48.255,8.002-94.492,22.923-137.269c19.244-55.21,49.842-104.69,88.835-145.269
			c26.488-27.569,56.798-51.066,90.096-69.445c37.264-20.65,78.203-34.921,121.556-41.444c11.424-1.73,23.029-2.919,34.778-3.532
			c6.162-0.36,12.36-0.541,18.594-0.541c2.954-0.036,20.615,0.144,35.318,0.288c9.802,0.144,18.234,0.252,20.18,0.324
			c13.407,0.505,26.453,1.766,39.139,3.676c29.01,1.838,57.156,7.135,84.04,15.496c19.064,5.91,37.516,13.334,55.174,22.235
			c6.63,3.28,13.154,6.775,19.532,10.487c71.571,41.372,128.98,106.384,162.674,185.019c5.3,12.289,9.889,24.902,13.961,37.804
			C3141.653,2745.406,3147.432,2757.442,3147.432,2769.695z"/>
		<g>
			
				<linearGradient id="SVGID_00000142172055344004377830000001948542004980508564_" gradientUnits="userSpaceOnUse" x1="2453.6846" y1="2541.2551" x2="3108.8938" y2="3169.8308">
				<stop  offset="0" style="stop-color:#AB316D"/>
				<stop  offset="1" style="stop-color:#792D3D"/>
			</linearGradient>
			<path style="fill:url(#SVGID_00000142172055344004377830000001948542004980508564_);" d="M3146.17,2853.944
				c0.476,215.696-114.174,391.72-318.357,397.51c-3.156,0.09-55.265-0.009-58.44-0.001
				c-208.583,0.508-378.065-176.639-378.549-395.67c-0.484-219.03,168.214-397.001,376.797-397.509
				c4.878-0.012,50.663,0.441,55.496,0.621C3024.967,2466.441,3145.697,2640.035,3146.17,2853.944z"/>
			
				<linearGradient id="SVGID_00000168103396070895380330000004900740731644416419_" gradientUnits="userSpaceOnUse" x1="2995.1521" y1="2623.9719" x2="2239.7429" y2="3758.8601">
				<stop  offset="0" style="stop-color:#FFC444"/>
				<stop  offset="0.9964" style="stop-color:#F36F56"/>
			</linearGradient>
			
				<ellipse style="fill:url(#SVGID_00000168103396070895380330000004900740731644416419_);" cx="2839.105" cy="2858.41" rx="377.674" ry="396.59"/>
			
				<linearGradient id="SVGID_00000003796570334892361180000006851808835623391877_" gradientUnits="userSpaceOnUse" x1="3031.4194" y1="2589.469" x2="2804.4761" y2="2906.8357">
				<stop  offset="0" style="stop-color:#FFC444"/>
				<stop  offset="0.9964" style="stop-color:#F36F56"/>
			</linearGradient>
			
				<ellipse style="opacity:0.3;fill:url(#SVGID_00000003796570334892361180000006851808835623391877_);" cx="2839.104" cy="2858.41" rx="368.159" ry="386.599"/>
			
				<linearGradient id="SVGID_00000127741547241943797680000007448704466824049538_" gradientUnits="userSpaceOnUse" x1="2602.9326" y1="2226.5574" x2="2944.936" y2="3141.55">
				<stop  offset="0" style="stop-color:#FFC444"/>
				<stop  offset="0.9964" style="stop-color:#F36F56"/>
			</linearGradient>
			
				<ellipse style="fill:url(#SVGID_00000127741547241943797680000007448704466824049538_);" cx="2839.105" cy="2858.41" rx="357.045" ry="374.928"/>
			
				<linearGradient id="SVGID_00000050648981723604444540000018255836442638615436_" gradientUnits="userSpaceOnUse" x1="2396.8967" y1="4029.6926" x2="3077.9314" y2="2194.1423">
				<stop  offset="0.0036" style="stop-color:#EBEFF2"/>
				<stop  offset="1" style="stop-color:#FFFFFF"/>
			</linearGradient>
			
				<ellipse style="fill:url(#SVGID_00000050648981723604444540000018255836442638615436_);" cx="2831.472" cy="2858.41" rx="349.412" ry="366.913"/>
			<g>
				
					<linearGradient id="SVGID_00000003786316144800274400000006844650316171612308_" gradientUnits="userSpaceOnUse" x1="3083.6218" y1="2585.095" x2="2678.5093" y2="3399.9246">
					<stop  offset="0" style="stop-color:#FFC444"/>
					<stop  offset="0.9964" style="stop-color:#F36F56"/>
				</linearGradient>
				<path style="fill:url(#SVGID_00000003786316144800274400000006844650316171612308_);" d="M2868.363,2847.902l266.162,103.211
					c8.666-29.159,13.338-60.169,13.338-92.325c0-165.574-123.799-300.785-279.5-309.134V2847.902z"/>
			</g>
			<g style="opacity:0.54;">
				<path style="fill:#D8DEE8;" d="M2743.74,2850.085c-27.633-89.491,72.271-154.074,56.52-258.383
					c-6.951-46.028-33.998-83.74-67.26-113.996c-157.252,48.245-271.967,200.957-271.568,381.624
					c0.484,219.03,169.966,396.177,378.549,395.669c51.143-0.124,99.877-10.94,144.319-30.392
					c-6.44-126.581-45.268-198.084-86.559-241.162C2834.1,2917.051,2764.811,2918.324,2743.74,2850.085z"/>
			</g>
			
				<linearGradient id="SVGID_00000038397016948437649870000005673089998230652289_" gradientUnits="userSpaceOnUse" x1="2638.4646" y1="2506.1802" x2="3073.5789" y2="3317.3184">
				<stop  offset="0" style="stop-color:#FF9085"/>
				<stop  offset="1" style="stop-color:#FB6FBB"/>
			</linearGradient>
			
				<ellipse style="fill:url(#SVGID_00000038397016948437649870000005673089998230652289_);" cx="2830.49" cy="2864.153" rx="22.216" ry="23.329"/>
			
				<linearGradient id="SVGID_00000103260206028385026590000011388202696286982563_" gradientUnits="userSpaceOnUse" x1="2677.0117" y1="2485.5017" x2="3112.1272" y2="3296.6418">
				<stop  offset="0" style="stop-color:#FF9085"/>
				<stop  offset="1" style="stop-color:#FB6FBB"/>
			</linearGradient>
			<path style="fill:url(#SVGID_00000103260206028385026590000011388202696286982563_);" d="M2830.49,2678.244
				c-7.754,0-14.04,6.6-14.04,14.743v157.256c0,8.143,6.286,14.743,14.04,14.743s14.04-6.6,14.04-14.743v-157.256
				C2844.53,2684.844,2838.244,2678.244,2830.49,2678.244z"/>
			
				<linearGradient id="SVGID_00000054265638660836244260000006594129886115928727_" gradientUnits="userSpaceOnUse" x1="2517.4385" y1="2571.1016" x2="2952.5535" y2="3382.2405">
				<stop  offset="0" style="stop-color:#FF9085"/>
				<stop  offset="1" style="stop-color:#FB6FBB"/>
			</linearGradient>
			<path style="fill:url(#SVGID_00000054265638660836244260000006594129886115928727_);" d="M2828.951,2867.627L2828.951,2867.627
				c-3.025-3.545-8.215-3.843-11.591-0.666l-189.057,181.653c-3.376,3.177-3.66,8.626-0.635,12.171
				c3.025,3.545,8.215,3.843,11.59,0.666l189.058-181.653C2831.692,2876.622,2831.976,2871.172,2828.951,2867.627z"/>
		</g>
		<g>
			
				<linearGradient id="SVGID_00000013904001929737903950000011922704707631965085_" gradientUnits="userSpaceOnUse" x1="1352.988" y1="1035.1953" x2="953.0464" y2="800.7855">
				<stop  offset="0" style="stop-color:#FF9085"/>
				<stop  offset="1" style="stop-color:#FB6FBB"/>
			</linearGradient>
			<path style="fill:url(#SVGID_00000013904001929737903950000011922704707631965085_);" d="M1179.196,985.132
				c25.563,12.978,57.679,1.061,71.731-26.617c14.053-27.679,4.723-60.639-20.84-73.618c-1.324-0.673-2.676-1.238-4.031-1.779
				c4.749-15.315,8.33-30.751,10.731-46.193c1.465-0.004,2.936-0.029,4.43-0.162c29.165-2.599,52.312-29.398,51.701-59.86
				c-0.61-30.461-24.749-53.047-53.913-50.447c-1.525,0.137-3.022,0.377-4.511,0.642c-3.046-15.095-7.22-29.841-12.486-44.113
				c1.341-0.785,2.676-1.595,3.98-2.509c24.952-17.481,32.929-51.983,17.818-77.063c-15.111-25.079-47.589-31.239-72.54-13.758
				c-1.28,0.896-2.481,1.864-3.671,2.846c-9.855-10.895-20.664-20.991-32.359-30.206c0.822-1.348,1.627-2.714,2.356-4.147
				c14.053-27.679,32.417-57.915,6.654-70.491c-59.597-29.094-85.172-4.189-99.226,23.49c-0.728,1.434-1.354,2.89-1.959,4.349
				c-14.34-4.003-28.87-6.772-43.48-8.3c0.092-1.539,0.162-3.08,0.131-4.641c-0.611-30.46,8.428-46.944-20.848-47.513
				c-63.839-1.241-85.377,26.468-84.766,56.927c0.032,1.592,0.165,3.148,0.322,4.694c-14.63,4.171-28.997,9.502-42.982,15.951
				c-0.665-1.359-1.355-2.709-2.144-4.021c-15.111-25.079-47.588-31.238-72.541-13.757c-24.952,17.482-32.929,51.984-17.818,77.063
				c0.774,1.286,1.623,2.487,2.483,3.673c-11.05,11.051-21.398,23.05-30.96,35.923c-1.236-0.776-2.491-1.533-3.815-2.206
				c-25.563-12.979-57.678-1.061-71.73,26.617c-14.053,27.679-4.723,60.639,20.839,73.618c1.324,0.673,2.676,1.237,4.033,1.778
				c-4.749,15.316-8.33,30.751-10.732,46.193c-1.466,0.005-2.936,0.029-4.428,0.16c-29.166,2.601-52.313,29.4-51.702,59.862
				c0.61,30.461,24.749,53.045,53.914,50.445c1.522-0.136,3.02-0.375,4.508-0.64c3.047,15.095,7.221,29.841,12.486,44.113
				c-1.341,0.785-2.676,1.596-3.98,2.509c-24.951,17.481-32.929,51.983-17.818,77.063c15.111,25.08,65.139,36.732,90.091,19.251
				c1.279-0.896-15.069-7.356-13.88-8.338c9.855,10.895,20.663,20.992,32.358,30.206c-0.82,1.349-1.627,2.714-2.354,4.147
				c-14.054,27.679-4.723,60.639,20.84,73.618c25.562,12.978,57.677,1.061,71.732-26.617c0.728-1.434,1.355-2.89,1.959-4.349
				c14.339,4.004,28.869,6.772,43.48,8.3c-0.091,1.539-0.162,3.081-0.131,4.642c0.61,30.459,24.748,53.045,53.913,50.445
				c29.164-2.6,52.312-29.4,51.701-59.86c-0.032-1.592-0.165-3.148-0.323-4.695c14.63-4.171,28.998-9.502,42.982-15.95
				c0.664,1.358,1.354,2.708,2.144,4.019c15.111,25.078,47.589,31.24,72.541,13.757c24.953-17.482,32.93-51.984,17.818-77.065
				c-0.774-1.284-1.622-2.484-2.483-3.671c11.05-11.051,21.398-23.05,30.959-35.922
				C1176.618,983.701,1177.873,984.459,1179.196,985.132z M860.533,989.175c-92.814-47.123-126.689-166.792-75.664-267.289
				c51.024-100.497,167.627-143.766,260.44-96.642c92.813,47.123,126.688,166.792,75.665,267.289
				C1069.947,993.031,953.344,1036.299,860.533,989.175z"/>
			
				<linearGradient id="SVGID_00000051348758212542904950000002244171606532923573_" gradientUnits="userSpaceOnUse" x1="868.4099" y1="759.4234" x2="957.2858" y2="799.4175">
				<stop  offset="0" style="stop-color:#FF9085"/>
				<stop  offset="1" style="stop-color:#FB6FBB"/>
			</linearGradient>
			<path style="fill:url(#SVGID_00000051348758212542904950000002244171606532923573_);" d="M1241.217,836.763
				c29.165-2.601,52.312-29.4,51.701-59.861c-0.61-30.461-24.749-53.047-53.913-50.446c-1.525,0.136-3.022,0.377-4.511,0.641
				c-3.044-15.096-7.22-29.84-12.486-44.113c1.341-0.784,2.676-1.595,3.98-2.509c24.952-17.481,55.821-59.721,38.218-83.117
				c-33.412-44.406-67.989-25.185-92.94-7.704c-1.28,0.896-2.481,1.863-3.67,2.845c-9.856-10.895-20.665-20.99-32.36-30.205
				c0.822-1.348,1.627-2.714,2.356-4.147c7.649-15.064,8.323-31.673,3.272-45.793c-24.101,42.418-47.877,85.015-71.226,127.843
				c74.043,54.257,97.616,161.18,51.333,252.338c-39.218,77.246-117.18,120.621-193.304,115.186
				c-3.396,8.806-6.729,17.661-10.366,26.382c-9.868,23.668-21.078,46.849-32.302,69.999c7.059,1.331,14.15,2.378,21.26,3.123
				c-0.091,1.54-0.162,3.082-0.131,4.642c0.61,30.46,19.103,56.34,71.961,53.537c29.239-1.551,34.263-32.491,33.653-62.951
				c-0.032-1.591-0.165-3.148-0.322-4.694c14.629-4.171,28.998-9.502,42.982-15.951c0.664,1.359,1.354,2.708,2.145,4.019
				c15.111,25.08,67.533,35.736,92.486,18.254c24.952-17.482,12.984-56.48-2.127-81.56c-0.774-1.284-1.622-2.485-2.483-3.672
				c11.05-11.05,21.398-23.05,30.959-35.921c1.237,0.776,2.492,1.534,3.816,2.204c25.563,12.98,57.679,1.062,71.732-26.617
				c14.052-27.678,4.723-60.639-20.84-73.618c-1.324-0.673-2.677-1.237-4.032-1.778c4.749-15.315,8.33-30.752,10.731-46.192
				C1238.253,836.921,1239.724,836.895,1241.217,836.763z"/>
			
				<linearGradient id="SVGID_00000170238557458490915730000016090766631731125178_" gradientUnits="userSpaceOnUse" x1="1248.1792" y1="1149.5043" x2="270.5429" y2="-88.8335">
				<stop  offset="0" style="stop-color:#FF9085"/>
				<stop  offset="1" style="stop-color:#FB6FBB"/>
			</linearGradient>
			<path style="fill:url(#SVGID_00000170238557458490915730000016090766631731125178_);" d="M1206.69,988.258
				c25.563,12.978,57.679,1.061,71.732-26.617c14.052-27.68,4.723-60.639-20.841-73.618c-1.324-0.672-2.675-1.237-4.031-1.778
				c4.749-15.315,8.33-30.751,10.732-46.193c1.465-0.004,2.935-0.028,4.429-0.161c29.165-2.6,52.312-29.401,51.702-59.861
				c-0.611-30.461-24.749-53.046-53.913-50.447c-1.525,0.137-3.022,0.378-4.511,0.643c-3.046-15.096-7.219-29.841-12.486-44.113
				c1.342-0.786,2.676-1.597,3.98-2.51c24.952-17.481,32.929-51.984,17.818-77.064c-15.111-25.079-47.588-31.239-72.541-13.757
				c-1.279,0.895-2.482,1.863-3.67,2.845c-9.855-10.895-20.664-20.991-32.359-30.206c0.822-1.347,1.628-2.714,2.357-4.147
				c14.052-27.679,4.722-60.639-20.841-73.617c-25.563-12.98-57.678-1.062-71.731,26.617c-0.728,1.434-1.355,2.89-1.959,4.348
				c-14.34-4.004-28.87-6.773-43.48-8.301c0.091-1.538,0.161-3.08,0.131-4.641c-0.611-30.46-24.749-53.046-53.914-50.445
				c-29.164,2.599-52.312,29.4-51.701,59.859c0.032,1.592,0.165,3.148,0.323,4.695c-14.629,4.17-28.997,9.502-42.982,15.951
				c-0.664-1.358-1.354-2.709-2.143-4.021c-15.11-25.079-47.589-31.238-72.541-13.756c-24.952,17.482-32.928,51.984-17.818,77.064
				c0.775,1.284,1.622,2.487,2.484,3.672c-11.05,11.051-21.399,23.05-30.961,35.923c-1.236-0.776-2.49-1.534-3.815-2.206
				c-25.562-12.979-57.677-1.062-71.731,26.617c-14.054,27.679-4.723,60.639,20.839,73.618c1.325,0.672,2.676,1.237,4.032,1.778
				c-4.748,15.316-8.331,30.752-10.731,46.193c-1.466,0.005-2.937,0.029-4.429,0.161c-29.165,2.602-52.313,29.401-51.702,59.862
				c0.611,30.461,24.749,53.045,53.913,50.446c1.524-0.136,3.022-0.376,4.51-0.641c3.047,15.095,7.22,29.841,12.487,44.113
				c-1.342,0.785-2.676,1.596-3.981,2.509c-24.951,17.481-32.928,51.984-17.818,77.063c15.111,25.08,47.589,31.239,72.541,13.758
				c1.278-0.896,2.482-1.864,3.67-2.846c9.857,10.895,20.664,20.992,32.359,30.206c-0.822,1.348-1.628,2.714-2.354,4.148
				c-14.055,27.679-4.724,60.638,20.838,73.618c25.563,12.979,57.679,1.061,71.731-26.618c0.729-1.434,1.355-2.89,1.959-4.349
				c14.34,4.005,28.87,6.773,43.481,8.3c-0.091,1.539-0.162,3.081-0.131,4.643c0.611,30.459,24.749,53.045,53.913,50.445
				c29.165-2.599,52.313-29.401,51.701-59.86c-0.031-1.592-0.164-3.149-0.323-4.695c14.63-4.17,28.998-9.501,42.982-15.95
				c0.664,1.358,1.355,2.708,2.145,4.018c15.111,25.081,47.588,31.241,72.54,13.758c24.952-17.482,32.93-51.983,17.819-77.065
				c-0.775-1.283-1.622-2.484-2.484-3.671c11.049-11.05,21.398-23.05,30.96-35.922
				C1204.112,986.828,1205.366,987.586,1206.69,988.258z M888.026,992.301c-92.813-47.123-126.689-166.792-75.664-267.289
				c51.025-100.497,167.627-143.765,260.44-96.642c92.813,47.123,126.688,166.792,75.665,267.289
				C1097.442,996.157,980.84,1039.424,888.026,992.301z"/>
		</g>
		<g>
			
				<linearGradient id="SVGID_00000183970780782317557910000011336154245185178795_" gradientUnits="userSpaceOnUse" x1="1823.7592" y1="1233.1244" x2="1532.2961" y2="1062.2949">
				<stop  offset="0" style="stop-color:#FF9085"/>
				<stop  offset="1" style="stop-color:#FB6FBB"/>
			</linearGradient>
			<path style="fill:url(#SVGID_00000183970780782317557910000011336154245185178795_);" d="M1697.106,1196.64
				c18.629,9.458,42.034,0.773,52.275-19.398c10.241-20.171,3.442-44.192-15.187-53.65c-0.965-0.49-1.95-0.902-2.938-1.297
				c3.461-11.161,6.07-22.411,7.82-33.664c1.067-0.003,2.139-0.021,3.228-0.118c21.254-1.894,38.123-21.424,37.678-43.624
				c-0.445-22.199-18.036-38.659-39.29-36.764c-1.111,0.1-2.202,0.275-3.287,0.468c-2.22-11.001-5.262-21.747-9.099-32.148
				c0.978-0.572,1.95-1.163,2.901-1.829c18.184-12.739,23.998-37.884,12.985-56.161s-34.681-22.766-52.865-10.026
				c-0.933,0.653-1.808,1.359-2.675,2.074c-7.182-7.94-15.059-15.297-23.582-22.013c0.599-0.982,1.186-1.978,1.717-3.023
				c10.241-20.171,23.625-42.206,4.849-51.371c-43.432-21.203-62.07-3.053-72.312,17.119c-0.53,1.045-0.987,2.106-1.427,3.169
				c-10.451-2.917-21.039-4.935-31.687-6.049c0.067-1.122,0.118-2.245,0.096-3.382c-0.446-22.198,6.142-34.211-15.193-34.626
				c-46.523-0.905-62.219,19.289-61.774,41.486c0.023,1.16,0.12,2.294,0.235,3.421c-10.662,3.039-21.132,6.925-31.323,11.625
				c-0.484-0.991-0.987-1.974-1.563-2.93c-11.012-18.277-34.681-22.765-52.865-10.025c-18.184,12.74-23.997,37.884-12.985,56.161
				c0.564,0.937,1.182,1.812,1.81,2.676c-8.053,8.054-15.594,16.798-22.563,26.179c-0.901-0.565-1.816-1.117-2.781-1.608
				c-18.629-9.458-42.033-0.773-52.275,19.398c-10.241,20.171-3.442,44.192,15.187,53.65c0.965,0.49,1.95,0.902,2.939,1.296
				c-3.461,11.162-6.071,22.411-7.821,33.664c-1.068,0.003-2.14,0.021-3.227,0.117c-21.255,1.896-38.124,21.426-37.679,43.625
				c0.445,22.199,18.036,38.658,39.291,36.763c1.109-0.099,2.201-0.273,3.286-0.467c2.22,11.001,5.262,21.747,9.099,32.148
				c-0.977,0.572-1.95,1.163-2.9,1.829c-18.183,12.739-23.997,37.884-12.985,56.161c11.012,18.277,47.471,26.769,65.655,14.029
				c0.932-0.653-10.982-5.36-10.115-6.076c7.182,7.94,15.059,15.298,23.581,22.013c-0.598,0.983-1.186,1.978-1.716,3.023
				c-10.242,20.171-3.442,44.192,15.187,53.65c18.629,9.458,42.033,0.774,52.276-19.398c0.53-1.045,0.987-2.106,1.427-3.17
				c10.45,2.918,21.038,4.935,31.687,6.049c-0.067,1.121-0.118,2.245-0.095,3.383c0.445,22.198,18.036,38.657,39.29,36.763
				c21.254-1.895,38.124-21.426,37.678-43.624c-0.023-1.16-0.12-2.295-0.236-3.421c10.661-3.039,21.133-6.925,31.324-11.624
				c0.484,0.99,0.987,1.974,1.562,2.929c11.013,18.276,34.681,22.766,52.865,10.026c18.185-12.741,23.998-37.884,12.985-56.162
				c-0.564-0.936-1.182-1.811-1.809-2.675c8.053-8.053,15.594-16.798,22.562-26.179
				C1695.227,1195.597,1696.141,1196.15,1697.106,1196.64z M1464.875,1199.586c-67.639-34.341-92.327-121.552-55.141-194.791
				c37.185-73.239,122.16-104.771,189.799-70.429c67.638,34.341,92.326,121.552,55.142,194.791
				C1617.489,1202.396,1532.513,1233.928,1464.875,1199.586z"/>
			
				<linearGradient id="SVGID_00000033360741954691533740000003311097338618903714_" gradientUnits="userSpaceOnUse" x1="1470.6161" y1="1032.1516" x2="1535.3856" y2="1061.2979">
				<stop  offset="0" style="stop-color:#FF9085"/>
				<stop  offset="1" style="stop-color:#FB6FBB"/>
			</linearGradient>
			<path style="fill:url(#SVGID_00000033360741954691533740000003311097338618903714_);" d="M1742.305,1088.514
				c21.254-1.895,38.123-21.426,37.678-43.624c-0.445-22.199-18.036-38.659-39.29-36.763c-1.111,0.099-2.202,0.275-3.287,0.467
				c-2.219-11.001-5.262-21.746-9.099-32.148c0.978-0.571,1.95-1.163,2.901-1.829c18.184-12.739,40.68-43.522,27.852-60.573
				c-24.349-32.361-49.548-18.354-67.731-5.615c-0.933,0.653-1.808,1.358-2.674,2.073c-7.183-7.94-15.06-15.297-23.583-22.012
				c0.599-0.982,1.186-1.978,1.717-3.023c5.574-10.978,6.066-23.082,2.385-33.372c-17.564,30.913-34.891,61.956-51.907,93.167
				c53.96,39.54,71.139,117.462,37.41,183.895c-28.581,56.294-85.397,87.904-140.873,83.943c-2.475,6.417-4.904,12.87-7.554,19.226
				c-7.191,17.248-15.361,34.142-23.541,51.013c5.145,0.97,10.312,1.733,15.493,2.276c-0.067,1.122-0.118,2.246-0.095,3.383
				c0.445,22.198,13.922,41.059,52.443,39.016c21.308-1.13,24.97-23.678,24.525-45.876c-0.023-1.16-0.12-2.294-0.235-3.421
				c10.661-3.039,21.132-6.925,31.323-11.624c0.484,0.99,0.987,1.974,1.563,2.929c11.013,18.278,49.216,26.043,67.4,13.303
				c18.184-12.74,9.462-41.16-1.55-59.438c-0.564-0.936-1.182-1.811-1.809-2.676c8.053-8.053,15.594-16.798,22.562-26.178
				c0.902,0.566,1.816,1.118,2.781,1.606c18.629,9.459,42.034,0.774,52.276-19.397c10.241-20.171,3.442-44.192-15.187-53.65
				c-0.965-0.49-1.951-0.902-2.938-1.296c3.461-11.161,6.07-22.411,7.82-33.663
				C1740.144,1088.629,1741.216,1088.61,1742.305,1088.514z"/>
			
				<linearGradient id="SVGID_00000142862854263923129650000015762216913855365011_" gradientUnits="userSpaceOnUse" x1="1747.3782" y1="1316.4285" x2="1034.9121" y2="413.9725">
				<stop  offset="0" style="stop-color:#FF9085"/>
				<stop  offset="1" style="stop-color:#FB6FBB"/>
			</linearGradient>
			<path style="fill:url(#SVGID_00000142862854263923129650000015762216913855365011_);" d="M1717.143,1198.918
				c18.629,9.458,42.034,0.773,52.276-19.398c10.241-20.172,3.442-44.192-15.188-53.651c-0.965-0.489-1.95-0.902-2.938-1.296
				c3.461-11.161,6.07-22.41,7.821-33.664c1.068-0.003,2.139-0.021,3.228-0.117c21.254-1.895,38.123-21.426,37.678-43.625
				c-0.446-22.199-18.036-38.658-39.29-36.764c-1.112,0.1-2.202,0.275-3.288,0.468c-2.22-11.001-5.261-21.747-9.099-32.148
				c0.978-0.573,1.95-1.164,2.901-1.829c18.184-12.74,23.997-37.884,12.985-56.161c-11.013-18.277-34.681-22.766-52.865-10.026
				c-0.932,0.653-1.809,1.358-2.674,2.073c-7.182-7.94-15.059-15.297-23.582-22.013c0.599-0.982,1.186-1.978,1.717-3.023
				c10.241-20.171,3.441-44.191-15.188-53.649c-18.629-9.459-42.033-0.774-52.275,19.398c-0.53,1.045-0.988,2.106-1.427,3.169
				c-10.451-2.918-21.039-4.936-31.687-6.049c0.066-1.121,0.118-2.245,0.095-3.382c-0.446-22.198-18.036-38.658-39.291-36.763
				c-21.254,1.894-38.123,21.426-37.678,43.623c0.023,1.16,0.12,2.294,0.235,3.421c-10.661,3.039-21.132,6.925-31.324,11.624
				c-0.484-0.99-0.987-1.974-1.562-2.93c-11.012-18.277-34.681-22.765-52.865-10.025c-18.184,12.74-23.997,37.884-12.985,56.161
				c0.564,0.936,1.182,1.812,1.81,2.676c-8.053,8.053-15.595,16.798-22.563,26.179c-0.901-0.566-1.815-1.118-2.78-1.608
				c-18.629-9.459-42.033-0.774-52.275,19.398c-10.242,20.171-3.442,44.191,15.187,53.65c0.965,0.49,1.95,0.902,2.939,1.295
				c-3.461,11.162-6.071,22.411-7.82,33.664c-1.068,0.003-2.14,0.021-3.228,0.117c-21.254,1.896-38.124,21.426-37.678,43.625
				c0.445,22.199,18.036,38.657,39.289,36.763c1.11-0.099,2.203-0.274,3.286-0.467c2.22,11,5.262,21.747,9.1,32.148
				c-0.978,0.572-1.95,1.163-2.901,1.829c-18.184,12.739-23.997,37.884-12.985,56.161c11.013,18.278,34.681,22.765,52.865,10.026
				c0.932-0.653,1.809-1.358,2.675-2.074c7.183,7.94,15.059,15.298,23.582,22.013c-0.599,0.982-1.186,1.978-1.716,3.023
				c-10.242,20.172-3.443,44.191,15.186,53.65c18.629,9.458,42.034,0.774,52.275-19.398c0.531-1.045,0.988-2.106,1.427-3.169
				c10.451,2.918,21.04,4.936,31.688,6.049c-0.066,1.121-0.118,2.245-0.096,3.383c0.446,22.197,18.036,38.657,39.29,36.763
				c21.254-1.894,38.124-21.426,37.678-43.624c-0.023-1.16-0.12-2.294-0.235-3.421c10.662-3.039,21.133-6.924,31.324-11.624
				c0.484,0.989,0.988,1.974,1.563,2.928c11.012,18.278,34.681,22.767,52.865,10.026c18.184-12.74,23.998-37.883,12.986-56.162
				c-0.565-0.935-1.182-1.811-1.81-2.675c8.052-8.053,15.594-16.798,22.562-26.179
				C1715.263,1197.876,1716.177,1198.428,1717.143,1198.918z M1484.912,1201.865c-67.639-34.341-92.326-121.552-55.141-194.791
				c37.186-73.239,122.161-104.771,189.8-70.429c67.638,34.341,92.326,121.552,55.142,194.791
				C1637.526,1204.675,1552.551,1236.206,1484.912,1201.865z"/>
		</g>
	</g>
</g>
</svg>
