<?xml version="1.0" encoding="utf-8"?>
<!-- Generator: Adobe Illustrator 27.5.0, SVG Export Plug-In . SVG Version: 6.00 Build 0)  -->
<svg version="1.1" xmlns="http://www.w3.org/2000/svg" xmlns:xlink="http://www.w3.org/1999/xlink" x="0px" y="0px"
	 viewBox="0 0 500 500" style="enable-background:new 0 0 500 500;" xml:space="preserve">
<g id="BACKGROUND">
	<g>
		<rect style="fill:#FFFFFF;" width="500" height="500"/>
	</g>
	<g>
		<path style="fill:#EFEFEF;" d="M32.615,424.864h438.293c9.37-12.167-1.027-31.482-12.481-41.612
			c-11.454-10.13-26.266-16.137-36.277-27.757c-11.982-13.909-15.064-33.325-18.834-51.458
			c-5.838-28.078-14.671-55.991-30.622-79.609s-39.752-42.679-67.333-47.983c-27.58-5.304-58.649,5.125-74.281,28.965
			c-6.425,9.798-10.074,21.264-16.372,31.148c-6.298,9.884-16.624,18.516-28.117,17.527c-13.658-1.175-22.528-14.681-33.632-22.901
			c-14.154-10.478-33.983-12.296-49.733-4.558c-15.75,7.738-26.758,24.705-27.61,42.556c-0.56,11.735,2.919,23.225,4.676,34.836
			c1.758,11.611,1.492,24.477-5.474,33.819c-7.802,10.463-21.685,13.657-32.131,21.339
			C24.349,372.664,20.086,405.641,32.615,424.864z"/>
		<path style="fill:#EFEFEF;" d="M170.588,214.184c-1.782,6.233-1.416,13.357,2.299,18.67c4.147,5.933,11.988,8.666,19.158,7.675
			c7.17-0.991,13.603-5.292,18.243-10.848c4.13-4.945,7.04-11.076,7.348-17.512c0.478-10.001-6.196-20.21-16.859-20.578
			c-8.242-0.285-14.855,2.678-20.864,8.02C175.541,203.498,172.201,208.543,170.588,214.184z"/>
		<g>
			<path style="fill:#E8E8E8;" d="M441.109,308.532h-7.934l-0.748-5.614c-0.989-0.233-1.968-0.55-2.916-0.948l-3.838,4.305
				l-6.42-4.663l2.815-5.2c-0.596-0.727-1.142-1.507-1.626-2.327l-5.931,1.292l-2.453-7.542l5.727-2.745
				c-0.009-0.246-0.015-0.494-0.015-0.742c0-0.581,0.026-1.161,0.079-1.731l-5.958-2.614l2.447-7.543l6.688,1.228
				c0.391-0.58,0.818-1.144,1.275-1.683l-3.499-5.982l6.42-4.662l4.881,5.128c0.581-0.219,1.184-0.413,1.801-0.579l0.715-7.135
				h7.932l0.94,7.05c0.608,0.152,1.213,0.335,1.803,0.545l4.755-5.338l6.42,4.662l-3.271,6.048c0.463,0.53,0.896,1.083,1.294,1.649
				l6.719-1.46l2.453,7.542l-5.825,2.792c0.074,0.673,0.112,1.372,0.112,2.082c0,0.123-0.002,0.247-0.004,0.37l5.889,2.589
				l-2.453,7.542l-5.913-1.087c-0.473,0.832-1.001,1.619-1.574,2.348l3.023,5.176l-6.42,4.662l-3.93-4.128
				c-0.936,0.414-1.906,0.751-2.893,1.006L441.109,308.532z M434.051,307.532h6.152l0.549-5.511l0.347-0.082
				c1.157-0.275,2.293-0.67,3.377-1.175l0.325-0.152l3.819,4.012l4.978-3.616l-2.916-4.991l0.221-0.268
				c0.692-0.847,1.32-1.783,1.866-2.783l0.173-0.318l5.761,1.059l1.902-5.849l-5.672-2.494l0.007-0.334
				c0.006-0.282,0.011-0.482,0.011-0.682c0-0.794-0.05-1.572-0.148-2.313l-0.047-0.36l5.686-2.725l-1.902-5.85l-6.493,1.412
				l-0.189-0.281c-0.487-0.721-1.038-1.422-1.636-2.084l-0.236-0.262l3.188-5.896l-4.979-3.616l-4.608,5.174l-0.321-0.122
				c-0.758-0.287-1.543-0.524-2.335-0.706l-0.338-0.078l-0.914-6.866h-6.152l-0.693,6.932l-0.342,0.085
				c-0.807,0.202-1.591,0.454-2.33,0.749l-0.314,0.125l-4.742-4.982l-4.979,3.616l3.405,5.82l-0.239,0.271
				c-0.589,0.669-1.13,1.382-1.607,2.119l-0.182,0.28l-6.48-1.189l-1.898,5.849l5.801,2.544l-0.041,0.366
				c-0.074,0.65-0.111,1.318-0.111,1.986c0,0.345,0.012,0.689,0.026,1.028l0.016,0.331l-5.531,2.651l1.902,5.849l5.763-1.255
				l0.182,0.321c0.556,0.983,1.202,1.91,1.923,2.755l0.222,0.261l-2.723,5.03l4.978,3.616l3.718-4.17l0.333,0.147
				c1.1,0.486,2.244,0.858,3.401,1.106l0.345,0.074L434.051,307.532z M439.659,292.28h-5.596l-4.537-3.295l-1.736-5.331l1.731-5.33
				l4.542-3.295h5.596l4.542,3.295l1.732,5.33l-1.736,5.331L439.659,292.28z M434.387,291.28h4.947l4.012-2.913l1.535-4.713
				l-1.531-4.712l-4.016-2.913h-4.947l-4.016,2.913l-1.531,4.712l1.535,4.713L434.387,291.28z"/>
		</g>
		<g>
			<path style="fill:#E8E8E8;" d="M239.866,166.712h-7.934l-0.748-5.614c-0.991-0.233-1.969-0.551-2.917-0.948l-3.837,4.305
				l-6.42-4.662l2.815-5.201c-0.598-0.729-1.144-1.51-1.626-2.327l-5.932,1.292l-2.453-7.542l5.727-2.745
				c-0.009-0.246-0.014-0.494-0.014-0.742c0-0.58,0.026-1.161,0.079-1.731l-5.958-2.614l2.446-7.542l6.688,1.227
				c0.393-0.583,0.819-1.146,1.274-1.683l-3.498-5.982l6.419-4.662l4.882,5.129c0.583-0.22,1.186-0.413,1.8-0.579l0.716-7.135h7.932
				l0.939,7.05c0.608,0.152,1.213,0.335,1.802,0.545l4.756-5.339l6.42,4.662l-3.27,6.048c0.463,0.53,0.896,1.083,1.294,1.649
				l6.718-1.46l2.453,7.542l-5.824,2.792c0.074,0.67,0.111,1.369,0.111,2.083c0,0.124-0.001,0.247-0.004,0.37l5.889,2.588
				l-2.453,7.543l-5.912-1.087c-0.472,0.829-1,1.617-1.574,2.348l3.023,5.176l-6.42,4.662l-3.93-4.128
				c-0.936,0.414-1.905,0.751-2.893,1.007L239.866,166.712z M232.807,165.712h6.152l0.549-5.51l0.346-0.083
				c1.158-0.276,2.295-0.671,3.378-1.175l0.325-0.152l3.819,4.012l4.979-3.616l-2.915-4.99l0.219-0.269
				c0.695-0.85,1.323-1.787,1.867-2.783l0.173-0.318l5.76,1.059l1.902-5.849l-5.674-2.494l0.009-0.335
				c0.006-0.224,0.011-0.452,0.011-0.681c0-0.799-0.05-1.577-0.148-2.313l-0.047-0.36l5.685-2.725l-1.902-5.85l-6.492,1.412
				l-0.189-0.281c-0.487-0.721-1.038-1.422-1.636-2.085l-0.236-0.262l3.188-5.895l-4.979-3.616l-4.608,5.174l-0.321-0.122
				c-0.758-0.286-1.543-0.524-2.335-0.707l-0.338-0.078l-0.914-6.865h-6.152l-0.694,6.932l-0.342,0.085
				c-0.802,0.2-1.586,0.452-2.331,0.749l-0.314,0.125l-4.742-4.982l-4.978,3.616l3.404,5.82l-0.239,0.271
				c-0.586,0.665-1.127,1.378-1.608,2.119l-0.181,0.28l-6.479-1.189l-1.898,5.849l5.801,2.544l-0.041,0.366
				c-0.074,0.65-0.111,1.318-0.111,1.986c0,0.344,0.011,0.688,0.026,1.027l0.017,0.332l-5.533,2.652l1.902,5.849l5.764-1.255
				l0.182,0.321c0.553,0.979,1.199,1.906,1.923,2.754l0.222,0.261l-2.723,5.031l4.979,3.615l3.717-4.17l0.333,0.147
				c1.099,0.486,2.243,0.858,3.402,1.107l0.345,0.074L232.807,165.712z M238.416,150.46h-5.596l-4.537-3.295l-1.736-5.331
				l1.73-5.331l4.543-3.295h5.596l4.543,3.295l1.73,5.331l-1.736,5.331L238.416,150.46z M233.144,149.46h4.947l4.012-2.913
				l1.535-4.712l-1.531-4.713l-4.016-2.913h-4.947l-4.016,2.913l-1.531,4.713l1.535,4.712L233.144,149.46z"/>
		</g>
		<ellipse style="fill:#E8E8E8;" cx="313.649" cy="440.498" rx="117.354" ry="6.826"/>
		<path style="fill:#E8E8E8;" d="M38.442,340.081l6.243,2.031l2.369-5.39c0.212,0.005,0.429,0.01,0.646,0.01
			c0.753,0,1.49-0.046,2.218-0.141l2.571,5.364l6.243-2.031l-1.339-6.158c0.702-0.475,1.369-1,1.995-1.566l5.567,3.01l3.859-5.314
			l-4.9-4.364c0.273-0.722,0.5-1.47,0.677-2.238l6.486-0.864v-6.567l-6.557-0.657c-0.192-0.768-0.429-1.51-0.717-2.233l4.713-4.485
			l-3.859-5.314l-5.501,3.218c-0.637-0.561-1.313-1.076-2.031-1.541l1.126-6.137l-6.243-2.026l-2.404,5.481
			c-0.626-0.071-1.263-0.106-1.904-0.106c-0.328,0-0.657,0.01-0.98,0.025l-2.516-5.248l-6.243,2.031l1.187,5.45
			c-0.939,0.53-1.823,1.147-2.642,1.844l-4.768-2.581l-3.859,5.314l3.95,3.521c-0.46,1.04-0.818,2.132-1.061,3.263l-5.152,0.687
			v6.567l5.228,0.52c0.268,1.126,0.647,2.207,1.127,3.238l-3.794,3.612l3.859,5.314l4.738-2.768
			c0.828,0.677,1.722,1.273,2.667,1.788L38.442,340.081z M40.77,321.856v-4.915l2.894-3.985l4.683-1.525l4.683,1.52l2.894,3.99
			v4.915l-2.894,3.991l-4.683,1.52l-4.683-1.525L40.77,321.856z"/>
	</g>
</g>
<g id="OBJECTS">
	<g>
		<g>
			<path style="fill:none;stroke:#000000;stroke-width:0.75;stroke-linecap:round;stroke-linejoin:round;stroke-miterlimit:10;" d="
				M300.227,297.938"/>
		</g>
	</g>
	<g>
		<g>
			<g>
				<g>
					<path style="fill:#7F95FF;" d="M398.828,349.083c-2.825,0-5.712-1.078-7.939-2.608c-2.772-1.906-4.98-4.496-7.116-7.001
						c-0.788-0.924-1.603-1.88-2.431-2.783c-3.821-4.165-7.455-6.299-11.11-6.523c-2.353-0.145-4.604,0.498-6.991,1.178
						c-0.913,0.26-1.858,0.529-2.797,0.746c-2.52,0.582-7.173,1.116-10.035-1.828c-1.745-1.795-2.254-4.31-2.745-6.742
						c-0.509-2.517-0.988-4.895-2.739-6.426c-1.443-1.263-3.398-1.624-5.47-2.005c-2.133-0.393-4.338-0.799-5.988-2.279
						c-1.296-1.163-2.001-2.801-2.037-4.74c-0.047-2.491,1.05-5.126,2.861-6.877c3.126-3.021,7.693-4.048,11.364-4.873l0.219,0.976
						c-3.548,0.797-7.964,1.79-10.888,4.616c-1.618,1.565-2.599,3.918-2.557,6.14c0.022,1.153,0.335,2.786,1.705,4.015
						c1.44,1.292,3.413,1.655,5.502,2.04c2.112,0.389,4.297,0.792,5.946,2.235c2.006,1.755,2.542,4.412,3.061,6.982
						c0.484,2.396,0.941,4.658,2.481,6.242c2.52,2.592,6.778,2.085,9.094,1.551c0.914-0.211,1.847-0.476,2.747-0.732
						c2.364-0.673,4.804-1.369,7.326-1.215c3.927,0.241,7.782,2.48,11.786,6.845c0.841,0.915,1.661,1.878,2.455,2.81
						c2.094,2.456,4.259,4.994,6.922,6.826c3.425,2.354,8.511,3.576,12.15,0.991l0.578,0.816
						C402.571,348.603,400.714,349.083,398.828,349.083z"/>
				</g>
				<g>
					<path style="fill:#E78995;" d="M326.357,97.23c-0.109-0.374-0.228-0.748-0.379-1.106c-0.141-0.334-0.102-0.596,0.099-0.908
						c2.558-3.964,5.108-7.933,7.641-11.913c0.567-0.89,1.326-1.479,2.319-1.81c1.889-0.629,3.772-1.275,5.656-1.919
						c1.389-0.474,1.867-1.367,1.469-2.759c-0.129-0.453-0.276-0.904-0.451-1.341c-1.397-3.485-4.541-5.308-8.246-4.715
						c-2.991,0.478-5.729,1.705-8.407,3.058c-0.45,0.227-0.542,0.149-0.687-0.282c-1.411-4.203-2.845-8.399-4.266-12.598
						c-0.179-0.528-0.392-1.037-0.712-1.493c-1.254-1.791-2.973-2.661-5.16-2.479c-2.199,0.183-3.713,1.379-4.665,3.332
						c-0.122,0.251-0.155,0.496-0.582,0.429c-2.191-0.343-5.446,0.807-6.581,3.615c-0.118,0.291-0.246,0.419-0.576,0.372
						c-1.232-0.173-2.404,0.072-3.539,0.548c-1.697,0.711-2.84,1.928-3.278,3.725c-0.121,0.498-0.294,0.61-0.795,0.612
						c-3.946,0.016-6.664,3.696-5.423,7.424c2.19,6.583,4.43,13.15,6.695,19.707c0.869,2.517,2.604,4.23,5.182,5.013
						c0.275,0.084,0.341,0.245,0.413,0.46c0.396,1.17,0.778,2.345,1.2,3.505l23.264-7.902
						C326.473,97.634,326.417,97.439,326.357,97.23z"/>
					<path style="fill:#7F95FF;" d="M338.224,110.665l-4.047-11.916c-0.595-1.751-2.496-2.688-4.247-2.093l-3.38,1.148
						l-23.264,7.902l-0.318,0.108c-0.672,0.228-1.221,0.652-1.613,1.183c-0.628,0.852-0.846,1.985-0.48,3.064l0.381,1.121
						l3.479,10.245l0.187,0.55c0.595,1.751,2.496,2.688,4.246,2.093c0,0,0,0,0,0l26.962-9.157
						C337.882,114.317,338.819,112.416,338.224,110.665z"/>
					<path style="fill:#010101;" d="M310.404,116.686c-1.559,0.529-3.252-0.305-3.781-1.864c-0.529-1.559,0.305-3.252,1.864-3.781
						c1.559-0.53,3.252,0.305,3.781,1.864C312.797,114.464,311.962,116.157,310.404,116.686z"/>
				</g>
				<g>
					<path style="fill:#7F95FF;" d="M358.319,300.085c-0.236,0-0.446-0.168-0.49-0.409l-33.896-182.74
						c-0.051-0.271,0.129-0.533,0.4-0.583c0.266-0.05,0.532,0.128,0.582,0.4l33.895,182.74c0.051,0.271-0.129,0.533-0.4,0.583
						C358.381,300.083,358.349,300.085,358.319,300.085z"/>
				</g>
			</g>
			<g>
				<g>
					<path style="fill:#F3CB73;" d="M358.32,300.085c-0.1,0-0.2-0.029-0.288-0.091c-0.226-0.159-0.279-0.471-0.121-0.696
						l63.682-90.467c0.16-0.226,0.471-0.28,0.697-0.121c0.226,0.159,0.279,0.471,0.121,0.696l-63.682,90.467
						C358.632,300.011,358.477,300.085,358.32,300.085z"/>
				</g>
				<g>
					
						<ellipse transform="matrix(0.4748 -0.8801 0.8801 0.4748 61.4244 479.8344)" style="fill:#F3CB73;" cx="432.74" cy="188.453" rx="23.887" ry="22.938"/>
					<g>
						<path style="fill:#F3CB73;" d="M359.828,369.662c-2.872,0-5.751-0.864-8.07-2.545c-3.998-2.896-6.208-8.123-5.5-13.008
							c0.377-2.603,1.499-5.027,2.583-7.371c1.232-2.664,2.396-5.179,2.578-7.952c0.349-5.327-3.096-10.151-6.137-13.758
							c-0.476-0.565-0.96-1.126-1.446-1.69c-2.998-3.479-6.099-7.075-7.396-11.538c-0.918-3.158-0.512-6.835,1.06-9.597
							c1.186-2.085,2.918-3.473,5.006-4.013l0.25,0.968c-1.82,0.471-3.337,1.695-4.387,3.54c-1.442,2.535-1.814,5.915-0.968,8.823
							c1.236,4.254,4.265,7.767,7.193,11.164c0.488,0.566,0.976,1.132,1.453,1.699c3.161,3.751,6.742,8.785,6.37,14.468
							c-0.193,2.958-1.452,5.677-2.668,8.307c-1.055,2.279-2.145,4.635-2.501,7.094c-0.656,4.527,1.392,9.371,5.096,12.055
							c3.705,2.683,8.946,3.12,13.043,1.086l0.445,0.896C363.976,369.21,361.904,369.662,359.828,369.662z"/>
					</g>
					<g>
						<g>
							<path d="M432.774,182.203c-0.005,0-0.011,0-0.017-0.001c-0.547-0.009-0.983-0.46-0.974-1.007
								c0.031-1.871-0.934-3.563-2.517-4.417c-1.585-0.855-3.529-0.73-5.074,0.323c-0.452,0.308-1.068,0.191-1.376-0.261
								c-0.309-0.452-0.191-1.068,0.261-1.376c2.158-1.471,4.892-1.638,7.13-0.429c2.237,1.206,3.6,3.58,3.557,6.194
								C433.756,181.77,433.314,182.203,432.774,182.203z"/>
						</g>
						<g>
							<path d="M447.91,190.368c-0.005,0-0.011,0-0.017-0.001c-0.547-0.009-0.983-0.46-0.974-1.007
								c0.031-1.871-0.933-3.564-2.517-4.418c-1.584-0.854-3.526-0.729-5.074,0.324c-0.452,0.308-1.067,0.192-1.376-0.261
								c-0.309-0.452-0.191-1.068,0.261-1.376c2.161-1.472,4.894-1.637,7.13-0.43c2.237,1.208,3.601,3.581,3.557,6.195
								C448.891,189.935,448.45,190.368,447.91,190.368z"/>
						</g>
					</g>
					<path style="fill:#FFFFFF;" d="M418.719,180.901c-4.323,8.056-1.57,17.954,6.16,22.124c7.73,4.17,17.514,1.034,21.872-7.003
						L418.719,180.901z"/>
				</g>
			</g>
			<g>
				<g>
					<path style="fill:#528987;" d="M407.435,339.76c-0.313,0-0.631-0.031-0.956-0.1c-1.694-0.355-2.896-1.601-4.06-2.806
						c-0.268-0.279-0.536-0.557-0.809-0.821c-4.951-4.799-12.884-6.095-24.25-3.959l-0.748,0.142
						c-4.142,0.786-8.424,1.602-12.395,0.12c-3.443-1.284-6.441-4.387-8.223-8.513c-0.334-0.774-0.636-1.582-0.936-2.393
						c-0.966-2.596-1.964-5.28-4.165-6.751c-1.299-0.867-2.843-1.204-4.478-1.561c-1.512-0.33-3.074-0.671-4.452-1.469
						c-2.269-1.316-3.635-3.986-3.564-6.969c0.033-1.395,0.386-2.73,1.02-3.862c0.344-0.612,0.768-1.162,1.261-1.634
						c0.113-0.114,1.011-1.163,1.167-1.37c0.009-0.016,0.019-0.032,0.029-0.047c0.103-0.146,0.27-0.226,0.455-0.209l15.616,1.489
						l39.896-145.303c0.074-0.267,0.345-0.423,0.615-0.35c0.266,0.073,0.423,0.348,0.35,0.614l-40.008,145.709
						c-0.064,0.234-0.279,0.39-0.53,0.365l-15.739-1.5c-0.314,0.481-0.859,1.034-1.159,1.322c-0.423,0.406-0.786,0.877-1.08,1.402
						c-0.555,0.99-0.863,2.165-0.893,3.397c-0.061,2.578,1.142,4.964,3.065,6.08c1.242,0.72,2.661,1.03,4.163,1.357
						c1.654,0.361,3.364,0.734,4.819,1.707c2.471,1.651,3.526,4.489,4.547,7.233c0.296,0.794,0.59,1.586,0.918,2.345
						c1.675,3.877,4.465,6.783,7.654,7.973c3.709,1.383,7.852,0.596,11.858-0.166l0.749-0.142
						c11.707-2.201,19.931-0.82,25.131,4.224c0.28,0.271,0.557,0.558,0.833,0.845c1.106,1.147,2.151,2.229,3.545,2.521
						c1.822,0.381,3.459-0.707,5.195-1.858c1.372-0.908,2.79-1.848,4.407-2.14c0.269-0.049,0.531,0.131,0.581,0.403
						c0.049,0.272-0.132,0.532-0.403,0.581c-1.414,0.255-2.745,1.137-4.032,1.989C410.868,338.694,409.258,339.76,407.435,339.76z"
						/>
				</g>
				<g>
					<path style="fill:#528987;" d="M398.328,154.377c-0.04,0-0.081-0.005-0.121-0.015c-0.139-0.035-0.257-0.128-0.323-0.255
						l-16.535-31.94c-0.08-0.155-0.073-0.341,0.018-0.49c0.09-0.149,0.252-0.24,0.427-0.24h62.684c0.219,0,0.412,0.142,0.478,0.351
						c0.064,0.208-0.013,0.436-0.193,0.56l-46.148,31.94C398.528,154.346,398.428,154.377,398.328,154.377z M382.615,122.436
						l15.896,30.706l44.365-30.706H382.615z"/>
				</g>
				<path style="fill:#528987;" d="M462.004,134.302h-97.739c-8.115,0-14.693-6.578-14.693-14.693v-14.321
					c0-8.115,6.578-14.693,14.693-14.693h97.739c8.115,0,14.693,6.578,14.693,14.693v14.321
					C476.697,127.724,470.119,134.302,462.004,134.302z"/>
				<g>
					<path style="fill:#F3CB73;" d="M369.32,103.782l2.26,4.579c0.133,0.269,0.39,0.456,0.687,0.499l5.053,0.734
						c0.748,0.109,1.047,1.028,0.505,1.556l-3.656,3.564c-0.215,0.21-0.313,0.511-0.262,0.807l0.863,5.033
						c0.128,0.745-0.654,1.313-1.323,0.962l-4.52-2.376c-0.266-0.14-0.583-0.14-0.849,0l-4.52,2.376
						c-0.669,0.352-1.451-0.216-1.324-0.962l0.863-5.033c0.051-0.296-0.047-0.598-0.262-0.807l-3.656-3.564
						c-0.541-0.528-0.243-1.447,0.505-1.556l5.053-0.734c0.297-0.043,0.554-0.23,0.687-0.499l2.26-4.579
						C368.019,103.104,368.985,103.104,369.32,103.782z"/>
					<path style="fill:#F3CB73;" d="M391.636,103.782l2.26,4.579c0.133,0.269,0.39,0.456,0.687,0.499l5.053,0.734
						c0.748,0.109,1.047,1.028,0.505,1.556l-3.656,3.564c-0.215,0.21-0.313,0.511-0.262,0.807l0.863,5.033
						c0.128,0.745-0.654,1.313-1.323,0.962l-4.52-2.376c-0.266-0.14-0.583-0.14-0.849,0l-4.52,2.376
						c-0.669,0.352-1.451-0.216-1.323-0.962l0.863-5.033c0.051-0.296-0.047-0.598-0.262-0.807l-3.657-3.564
						c-0.541-0.528-0.243-1.447,0.506-1.556l5.053-0.734c0.297-0.043,0.554-0.23,0.687-0.499l2.26-4.579
						C390.335,103.104,391.302,103.104,391.636,103.782z"/>
					<path style="fill:#F3CB73;" d="M413.953,103.782l2.26,4.579c0.133,0.269,0.39,0.456,0.687,0.499l5.053,0.734
						c0.748,0.109,1.047,1.028,0.505,1.556l-3.657,3.564c-0.215,0.21-0.313,0.511-0.262,0.807l0.863,5.033
						c0.128,0.745-0.654,1.313-1.324,0.962l-4.52-2.376c-0.266-0.14-0.583-0.14-0.849,0l-4.52,2.376
						c-0.669,0.352-1.451-0.216-1.324-0.962l0.863-5.033c0.051-0.296-0.047-0.598-0.262-0.807l-3.657-3.564
						c-0.541-0.528-0.243-1.447,0.506-1.556l5.053-0.734c0.297-0.043,0.554-0.23,0.687-0.499l2.26-4.579
						C412.651,103.104,413.618,103.104,413.953,103.782z"/>
					<path style="fill:#F3CB73;" d="M436.269,103.782l2.26,4.579c0.133,0.269,0.39,0.456,0.687,0.499l5.053,0.734
						c0.748,0.109,1.047,1.028,0.506,1.556l-3.657,3.564c-0.215,0.21-0.313,0.511-0.262,0.807l0.863,5.033
						c0.128,0.745-0.654,1.313-1.324,0.962l-4.52-2.376c-0.266-0.14-0.583-0.14-0.849,0l-4.52,2.376
						c-0.669,0.352-1.451-0.216-1.324-0.962l0.863-5.033c0.051-0.296-0.047-0.598-0.262-0.807l-3.657-3.564
						c-0.541-0.528-0.243-1.447,0.506-1.556l5.053-0.734c0.297-0.043,0.554-0.23,0.687-0.499l2.26-4.579
						C434.968,103.104,435.935,103.104,436.269,103.782z"/>
					<path style="fill:#F8E1C6;" d="M458.586,103.782l2.26,4.579c0.133,0.269,0.39,0.456,0.687,0.499l5.053,0.734
						c0.748,0.109,1.047,1.028,0.506,1.556l-3.657,3.564c-0.215,0.21-0.313,0.511-0.262,0.807l0.863,5.033
						c0.128,0.745-0.654,1.313-1.324,0.962l-4.52-2.376c-0.266-0.14-0.583-0.14-0.849,0l-4.52,2.376
						c-0.669,0.352-1.451-0.216-1.323-0.962l0.863-5.033c0.051-0.296-0.047-0.598-0.262-0.807l-3.657-3.564
						c-0.541-0.528-0.243-1.447,0.505-1.556l5.053-0.734c0.297-0.043,0.554-0.23,0.687-0.499l2.26-4.579
						C457.284,103.104,458.251,103.104,458.586,103.782z"/>
				</g>
			</g>
			<g>
				<g>
					<path style="fill:#D66E80;" d="M182.1,187.344c0.087,0.727,0.397,1.408,0.728,2.062c1.765,3.494,4.237,6.63,7.222,9.162
						c0.342,0.29,0.701,0.585,0.891,0.991c2.004-0.543,3.922-1.401,5.663-2.533c-2.015-4.574-3.19-9.462-4.558-14.27
						c-0.166-0.584-0.341-1.18-0.695-1.674C188.21,183.096,185.205,185.323,182.1,187.344z"/>
					<g>
						<path style="fill:#FBF0E0;" d="M194.632,179.699c-0.194,0.407-0.393,0.811-0.596,1.213c-1.62,3.215-3.54,6.281-5.731,9.155
							c-1.068,1.404-2.553,2.896-4.45,2.608c-0.835-0.128-1.558-0.581-2.208-1.144c-0.686-0.592-0.82-1.604-0.31-2.354
							c2.43-3.566,4.751-7.335,5.51-11.507c0.154-0.835,0.243-1.685,0.258-2.554c2.79-1.305,5.568-1.695,8.346-1.485
							c0.479,0.036,1.057,0.159,1.239,0.586c0.115,0.27,0.02,0.559-0.077,0.819C196.02,176.619,195.36,178.176,194.632,179.699z"/>
						<path style="fill:#F8E1C6;" d="M192.247,160.504c-4.091-3.419-7.93-7.139-11.472-11.124c-1.768-1.989-3.477-4.067-4.676-6.442
							c-0.698-1.383-1.432-2.96-2.226-4.29c-0.795-1.33-1.716-2.441-3.195-2.902c-1.479-0.461-9.328,5.048-15.27,15.609
							c-4.4,7.819-5.487,15.749-4.528,21.45c0.101,0.602,0.249,1.234,0.673,1.673c0.609,0.631,1.59,0.672,2.467,0.66
							c6.643-0.095,13.273-0.892,19.913-0.679c3.597,0.115,7.184,0.531,10.713,1.236
							C188.497,171.467,191.328,166.061,192.247,160.504z"/>
						<path style="fill:#FBF0E0;" d="M167.98,158.625c-0.767,1.585-1.583,3.088-2.426,4.483c-4.25,7.056-9.158,11.384-11.865,10.074
							c-2.223-1.076-2.387-5.677-0.768-11.56c0.445-1.616,1.023-3.329,1.73-5.092c0.471-1.178,1.002-2.379,1.587-3.587
							c0.521-1.076,1.062-2.113,1.62-3.104c4.422-7.864,9.793-12.848,12.672-11.455c2.782,1.346,2.336,8.207-0.783,16.197
							c-0.211,0.538-0.433,1.084-0.668,1.632C168.739,157.01,168.372,157.816,167.98,158.625z"/>
						<path style="fill:#EFCFA5;" d="M167.98,158.625c-0.767,1.585-1.583,3.088-2.426,4.483c-4.25,7.056-9.158,11.384-11.865,10.074
							c-2.223-1.076-2.387-5.677-0.768-11.56c4.526,8.196,9.671,3.661,16.158-5.409C168.739,157.01,168.372,157.816,167.98,158.625z
							"/>
						<g>
							<path style="fill:#EFCFA5;" d="M194.632,179.699c-0.194,0.407-0.393,0.811-0.596,1.213c-0.928-1.524-2.214-1.816-3.226-2.134
								c-1.309-0.412-2.632-0.781-3.963-1.107c0.154-0.835,0.243-1.685,0.258-2.554c2.79-1.305,5.568-1.695,8.346-1.485
								c0.479,0.036,1.057,0.159,1.239,0.586c0.115,0.27,0.02,0.559-0.077,0.819C196.02,176.619,195.36,178.176,194.632,179.699z"/>
						</g>
						<g>
							<path style="fill:#8096FE;" d="M201.919,172.496c0.509-1.351,1.005-2.921,0.287-4.174c-0.376-0.655-1.026-1.098-1.65-1.525
								c-2.869-1.962-5.642-4.064-8.309-6.294c-0.919,5.557-3.75,10.963-7.601,15.188c2.3,0.459,4.577,1.039,6.814,1.743
								c2.122,0.667,4.457,1.437,6.496,0.548C200.085,177.056,201.101,174.668,201.919,172.496z"/>
						</g>
						<path style="fill:#8096FE;" d="M167.98,158.625c-0.767,1.585-1.583,3.088-2.426,4.483c-2.01-1.089-3.973-2.208-5.892-3.37
							c-1.704-1.031-3.374-2.098-5.01-3.208c-0.776-0.523-1.543-1.057-2.304-1.602c-0.348-0.25-0.729-0.559-0.762-0.985
							c-0.021-0.269,0.103-0.524,0.229-0.762c0.532-1.013,1.142-1.983,1.819-2.903c0.315-0.428,0.671-0.864,1.171-1.043
							c0.607-0.22,1.28-0.014,1.889,0.196c0.389,0.134,0.779,0.271,1.165,0.409c3.64,1.284,7.231,2.699,10.764,4.245
							c0.375,0.165,0.751,0.33,1.125,0.498C169.231,155.904,168.642,157.259,167.98,158.625z"/>
						<path style="fill:#607EEA;" d="M167.98,158.625c-0.767,1.585-1.583,3.088-2.426,4.483c-2.01-1.089-3.973-2.208-5.892-3.37
							c4.951-0.192,7.579-2.999,8.96-5.654c0.375,0.165,0.751,0.33,1.125,0.498C169.231,155.904,168.642,157.259,167.98,158.625z"/>
					</g>
					<g>
						<path style="fill:#E78995;" d="M180.386,184.419c-0.243,0.232-0.476,0.443-0.582,0.766c-0.083,0.252-0.148,0.591,0.029,0.82
							c0.305,0.393,0.591,0.805,0.896,1.201c0.668,0.866,1.419,1.668,2.241,2.39c0.384,0.337,0.89,0.678,1.369,0.499
							c0.378-0.141,0.581-0.577,0.569-0.981c-0.012-0.404-0.193-0.781-0.385-1.136c-0.791-1.469-1.81-2.804-2.905-4.063
							c-0.058-0.067-0.122-0.137-0.208-0.157C181.161,183.701,180.897,183.931,180.386,184.419z"/>
						<path style="fill:#E78995;" d="M182.606,181.742c-0.063-0.01-0.127-0.013-0.191-0.011c-0.082,0.003-0.168,0.007-0.25,0.014
							c-0.035,0.003-0.067,0.014-0.099,0.027c-0.197,0.085-0.389,0.206-0.554,0.342c-0.328,0.27-0.573,0.674-0.544,1.097
							c0.022,0.321,0.196,0.61,0.369,0.882c0.876,1.377,1.86,2.686,2.94,3.911c0.478,0.542,1.021,1.095,1.729,1.242
							c0.341,0.071,0.73,0.026,0.98-0.217c0.424-0.415,0.238-1.125-0.002-1.668c-0.68-1.536-1.566-2.982-2.627-4.285
							c-0.153-0.188-0.31-0.372-0.477-0.548c-0.08-0.085-0.163-0.168-0.244-0.252c-0.07-0.072-0.167-0.092-0.256-0.131
							c-0.134-0.059-0.24-0.166-0.361-0.247C182.894,181.817,182.752,181.764,182.606,181.742z"/>
						<path style="fill:#E78995;" d="M184.222,178.941c-0.196-0.043-0.393-0.051-0.565-0.003c-0.483,0.136-0.992,0.472-1.171,0.957
							c-0.231,0.625,0.113,1.303,0.452,1.877c1.118,1.893,2.308,3.759,3.792,5.381c0.277,0.303,0.571,0.602,0.939,0.784
							c0.368,0.182,0.825,0.23,1.182,0.027c0.533-0.304,0.65-1.03,0.563-1.638c-0.122-0.858-0.52-1.649-0.924-2.416
							c-0.451-0.855-0.922-1.702-1.482-2.491c-0.548-0.772-1.201-1.575-1.982-2.123C184.817,179.15,184.52,179.006,184.222,178.941z
							"/>
						<path style="fill:#E78995;" d="M185.764,177.118c-0.571,0.271-1.223,0.656-1.285,1.316c-0.029,0.307,0.084,0.607,0.212,0.884
							c0.531,1.147,1.341,2.119,2.175,3.041c0.448,0.495,0.906,0.981,1.375,1.457c0.233,0.237,0.47,0.472,0.708,0.704
							c0.665,0.648,1.889,0.617,1.817-0.539c-0.026-0.424-0.18-0.825-0.342-1.213c-0.667-1.594-1.507-3.106-2.499-4.496
							C187.527,177.716,186.924,176.566,185.764,177.118z"/>
					</g>
					<g>
						<g>
							<path d="M184.067,190.518c-0.6,0-1.123-0.452-1.346-0.645c-0.79-0.68-1.563-1.499-2.294-2.435
								c-0.136-0.178-0.264-0.354-0.391-0.53c-0.163-0.225-0.324-0.448-0.496-0.664c-0.129-0.162-0.102-0.398,0.061-0.527
								c0.163-0.128,0.398-0.102,0.527,0.06c0.178,0.224,0.347,0.457,0.516,0.691c0.123,0.171,0.247,0.342,0.376,0.511
								c0.699,0.893,1.438,1.677,2.19,2.325c0.448,0.386,0.763,0.528,1,0.436c0.19-0.074,0.331-0.342,0.319-0.611
								c0.003-0.141-0.026-0.286-0.09-0.465c-0.067-0.195,0.035-0.409,0.23-0.478c0.197-0.066,0.41,0.035,0.479,0.23
								c0.094,0.269,0.135,0.492,0.131,0.704c0.024,0.575-0.304,1.126-0.8,1.318C184.341,190.495,184.202,190.518,184.067,190.518z"
								/>
						</g>
						<g>
							<path d="M186.296,189.652c-0.12,0-0.243-0.013-0.367-0.039c-0.83-0.172-1.434-0.793-1.934-1.362
								c-1.091-1.237-2.092-2.569-2.975-3.957c-0.067-0.104-0.134-0.212-0.193-0.324c-0.098-0.183-0.028-0.41,0.154-0.507
								c0.184-0.097,0.41-0.028,0.508,0.155c0.05,0.093,0.106,0.184,0.163,0.272c0.863,1.357,1.841,2.657,2.905,3.865
								c0.421,0.478,0.92,0.998,1.523,1.123c0.209,0.044,0.485,0.036,0.641-0.118c0.286-0.279,0.071-0.901-0.082-1.248
								c-0.084-0.189,0.002-0.411,0.191-0.495c0.188-0.083,0.411,0.001,0.494,0.191c0.514,1.16,0.241,1.775-0.079,2.087
								C187.011,189.528,186.67,189.652,186.296,189.652z"/>
						</g>
						<g>
							<path d="M188.32,188.473c-0.268,0-0.549-0.066-0.816-0.199c-0.431-0.214-0.755-0.546-1.049-0.867
								c-1.544-1.687-2.758-3.614-3.839-5.444c-0.105-0.179-0.046-0.409,0.133-0.514c0.178-0.105,0.408-0.046,0.514,0.132
								c1.061,1.796,2.248,3.683,3.745,5.319c0.247,0.269,0.515,0.545,0.829,0.702c0.23,0.114,0.57,0.183,0.828,0.037
								c0.381-0.217,0.441-0.814,0.379-1.26c-0.069-0.485-0.236-0.985-0.543-1.622c-0.09-0.187-0.012-0.411,0.176-0.501
								c0.184-0.089,0.41-0.011,0.5,0.175c0.342,0.71,0.529,1.278,0.609,1.842c0.1,0.711-0.043,1.613-0.748,2.017
								C188.824,188.413,188.578,188.473,188.32,188.473z"/>
						</g>
						<g>
							<path d="M189.945,185.317c-0.436,0-0.909-0.188-1.259-0.529c-0.24-0.234-0.479-0.471-0.714-0.71
								c-0.472-0.48-0.934-0.97-1.386-1.469c-0.966-1.067-1.716-2.009-2.236-3.135c-0.088-0.188-0.006-0.411,0.183-0.498
								c0.186-0.087,0.411-0.005,0.497,0.183c0.481,1.04,1.193,1.93,2.113,2.947c0.444,0.491,0.898,0.973,1.364,1.445
								c0.232,0.236,0.466,0.469,0.702,0.699c0.311,0.305,0.736,0.378,0.964,0.273c0.161-0.074,0.234-0.249,0.218-0.521
								c-0.023-0.367-0.168-0.74-0.314-1.091c-0.583-1.393-1.303-2.726-2.139-3.963c-0.116-0.171-0.071-0.405,0.101-0.52
								c0.171-0.116,0.404-0.071,0.52,0.1c0.864,1.278,1.607,2.655,2.209,4.094c0.172,0.409,0.341,0.85,0.371,1.333
								c0.036,0.587-0.202,1.042-0.653,1.249C190.322,185.281,190.136,185.317,189.945,185.317z"/>
						</g>
					</g>
					<path style="fill:#E78995;" d="M195.372,197.825c1.117,0.55,2.33-0.538,1.868-1.694c-1.14-2.854-2.074-5.787-2.136-8.84
						c-0.032-1.589,0.166-3.236-0.392-4.724c-0.793-2.115-2.898-3.393-4.861-4.51c-0.169-0.096-0.347-0.195-0.541-0.199
						c-0.288-0.007-0.536,0.193-0.75,0.387c-1.619,1.461-2.99,3.196-4.037,5.109c-0.18,0.329-0.314,0.82,0.007,1.015
						c0.177,0.108,0.404,0.054,0.602-0.009c1.407-0.452,2.702-1.251,3.737-2.307c0.764,0.892,0.796,2.201,0.577,3.354
						c-0.219,1.154-0.649,2.277-0.672,3.451c-0.041,2.135,1.255,4.049,2.618,5.691C192.352,195.708,193.396,196.852,195.372,197.825
						z"/>
					<g>
						<path d="M190.696,194.049c-0.113,0-0.227-0.052-0.3-0.15c-1.394-1.858-2.028-3.462-1.998-5.047
							c0.016-0.814,0.216-1.599,0.409-2.357c0.098-0.384,0.195-0.769,0.27-1.156c0.152-0.807,0.215-1.887-0.261-2.711
							c-1.021,0.946-2.246,1.664-3.571,2.09c-0.169,0.055-0.563,0.183-0.91-0.027c-0.442-0.27-0.497-0.865-0.141-1.516
							c0.98-1.791,2.229-3.416,3.71-4.831c0.149-0.143,0.386-0.137,0.53,0.012c0.143,0.149,0.138,0.387-0.013,0.53
							c-1.425,1.361-2.626,2.926-3.569,4.649c-0.15,0.274-0.155,0.478-0.132,0.513c0.017,0.01,0.069,0.029,0.295-0.043
							c1.352-0.434,2.591-1.199,3.585-2.212c0.073-0.074,0.176-0.108,0.28-0.112c0.105,0.004,0.204,0.051,0.272,0.131
							c0.918,1.072,0.865,2.586,0.66,3.668c-0.076,0.403-0.178,0.803-0.279,1.202c-0.191,0.75-0.372,1.459-0.386,2.187
							c-0.027,1.409,0.56,2.865,1.848,4.583c0.124,0.166,0.091,0.401-0.075,0.525C190.853,194.025,190.774,194.049,190.696,194.049z
							"/>
					</g>
				</g>
				<path style="fill:#292925;" d="M226.133,434.559c-0.397,1.683-0.793,3.366-1.19,5.049c-0.072,0.306-0.185,0.659-0.483,0.76
					c-0.146,0.049-0.306,0.023-0.458-0.004c-5.33-0.949-10.571-2.401-15.63-4.33c-0.585-0.223-1.267-0.586-1.284-1.212
					c-0.023-0.847,1.111-1.138,1.959-1.145C214.54,433.63,220.035,433.867,226.133,434.559z"/>
				<path style="fill:#7F95FF;" d="M290.159,323.57c-2.04,3.31-4.45,6.49-6.8,9.51c-0.23,0.29-0.46,0.59-0.69,0.88
					c-24,30.75-41.88,66.25-52.35,103.82c-1.26-0.02-2.48-0.21-3.75-0.57c-3.92-1.12-7.45-3.24-10.78-5.54
					c4.85-24.29,10.42-48.68,16.73-72.88c3.21-11.57,8.28-23.69,13.98-35.98c2.92-6.32,6.02-12.68,9.11-19.03
					c3.61-7.44,10.03-12.51,17.01-13.83c1.28-0.24,2.58-0.36,3.89-0.34c8.43,0.13,16.56,6.3,18.39,14.52
					C296.419,310.94,293.929,317.48,290.159,323.57z"/>
				<path style="fill:#292925;" d="M394.666,301.979c1.292-1.149,2.585-2.298,3.877-3.447c0.235-0.209,0.531-0.433,0.832-0.344
					c0.148,0.044,0.264,0.157,0.372,0.267c3.815,3.842,7.267,8.043,10.296,12.531c0.35,0.519,0.7,1.208,0.354,1.73
					c-0.469,0.706-1.563,0.292-2.261-0.19C403.616,309.406,399.257,306.052,394.666,301.979z"/>
				<path style="fill:#7F95FF;" d="M402.139,309.88c-7.61,7.74-36.98,35.24-45.02,41.33c-8.03,6.09-17.61,10.58-27.68,10.92
					c-13,0.44-25.49-6.12-34.78-15.22c-4.27-4.18-7.97-8.86-11.3-13.83c-1.8-2.66-3.49-5.41-5.11-8.2
					c-1.92-3.31-3.75-6.68-5.53-10.05c-1.86-3.5-3.71-7.1-4.24-11.03c-0.05-0.39-0.09-0.79-0.12-1.18
					c-0.32-4.73,1.32-9.21,4.26-12.67c2.2-2.6,5.14-4.62,8.52-5.75c7.31-2.44,13.43-1.46,18.37,1.26
					c7.19,3.95,12.25,10.9,16.06,18.16c2.39,4.55,3.67,7.74,5.29,11.24c0.97,2.09,2.05,4.29,3.56,6.95
					c3.25,5.73,8.56,11.98,15.05,13.09c6.95,1.2,50.31-30.98,55-34.17c0.13,0.14,0.28,0.27,0.44,0.39c1.05,0.75,2.37,1.98,3.39,3.14
					c1.05,1.19,1.85,2.33,2.77,3.8C401.439,308.66,401.799,309.27,402.139,309.88z"/>
				<path style="fill:#4E72F4;" d="M320.859,314.86c-9.93,4.15-20.26,7.08-30.7,8.71c-3.96,0.63-7.93,1.06-11.91,1.31
					c-0.06,0-0.11,0.01-0.17,0.01c-6.08,0.4-12.19,0.34-18.22-0.18c-4.5-0.39-8.96-1.01-13.36-1.9c2.92-6.32,6.02-12.68,9.11-19.03
					c3.61-7.44,10.03-12.51,17.01-13.83c2.2-2.6,5.14-4.62,8.52-5.75c7.31-2.44,13.43-1.46,18.37,1.26
					c7.19,3.95,12.25,10.9,16.06,18.16C317.959,308.17,319.239,311.36,320.859,314.86z"/>
				<g>
					<path d="M310.787,322.987c-4.161,0-8.98-1.358-13.498-5.875c-0.145-0.147-0.145-0.384,0-0.53c0.147-0.147,0.385-0.147,0.531,0
						c10.827,10.829,23.473,2.779,23.601,2.696c0.174-0.111,0.405-0.064,0.519,0.109c0.113,0.173,0.065,0.406-0.108,0.519
						C321.753,319.957,317.004,322.987,310.787,322.987z"/>
				</g>
				<g>
					<path d="M283.544,333.74c-0.12,0-0.238-0.058-0.311-0.165c-4.103-6.063-7.641-12.507-10.851-18.568
						c-1.655-3.125-3.716-7.015-4.274-11.156c-0.054-0.403-0.095-0.805-0.121-1.207c-0.567-8.322,4.791-16.054,13.03-18.802
						c6.747-2.248,13.03-1.814,18.676,1.291c0.182,0.1,0.248,0.328,0.147,0.509c-0.099,0.182-0.328,0.248-0.509,0.148
						c-5.456-3.001-11.536-3.417-18.078-1.236c-7.915,2.639-13.063,10.058-12.518,18.04c0.026,0.386,0.065,0.771,0.117,1.157
						c0.54,4.008,2.565,7.832,4.192,10.906c3.201,6.042,6.726,12.465,10.81,18.498c0.116,0.172,0.071,0.405-0.101,0.521
						C283.689,333.719,283.616,333.74,283.544,333.74z"/>
				</g>
				<path style="fill:#E1570D;" d="M266.491,210.087c-0.69,3.7-2.61,7.05-4.67,10.2c-3.5,5.34-7.5,10.35-11.95,14.93
					c-3.31,3.43-6.86,6.64-10.62,9.56c-1.16,0.9-2.37,1.78-3.63,2.61c-6.82,4.51-14.92,7.56-22.33,4.69
					c-8.62-3.34-24.87-43.43-22.51-53.19c1.71-1.71,1.65-1.8,5.94-4c8.47,8.46,18.45,23.67,23.79,34.25
					c5.55-9.67,12.77-18.38,21.23-25.64c3.13-2.68,6.53-5.22,10.5-6.33c3.97-1.1,8.64-0.52,11.55,2.4
					C266.441,202.237,267.171,206.387,266.491,210.087z"/>
				<path d="M249.871,235.217c-3.31,3.43-6.86,6.64-10.62,9.56c-1.16,0.9-2.37,1.78-3.63,2.61
					c4.36-8.89,14.289-21.566,14.289-21.566L249.871,235.217z"/>
				<path style="fill:#E1570D;" d="M322.707,311.547c-14.986,8.005-31.187,11.543-46.952,10.437
					c-4.645-0.301-9.262-1.025-13.784-2.158c-3.839-0.956-7.609-2.199-11.297-3.743c-1.284-0.533-2.664-1.202-3.251-2.473
					c-0.41-0.888-0.355-1.913-0.301-2.896c1.011-17.499-3.443-108.233-1.762-109.709c2.951-2.596,6.885-3.456,12.622-4.576
					c4.18-0.82,7.923-2.486,12.24-2.582c18.059-0.383,28.633,3.196,33.933,6.598c1.339,0.861,2.65,1.817,3.702,2.964
					c0.273,0.287,0.519,0.574,0.738,0.874c0.26,0.328,0.478,0.683,0.683,1.052c1.202,2.199,1.366,4.795,1.448,7.295
					c0.342,10.04-0.178,20.081-0.423,30.122v0.178c-0.178,6.748-0.232,13.497,0.164,20.245c0.97,15.997,6.694,26.707,13.715,44.22
					C324.811,308.951,324.183,310.754,322.707,311.547z"/>
				<path d="M310.303,242.751c-4.645-2.309-9.248-4.645-13.305-7.841c-6.762-5.341-11.871-14.139-9.508-22.431
					c0.109-0.369,0.219-0.724,0.355-1.079c2.677-7.131,10.847-10.532,18.046-8.06c0.901,0.314,1.803,0.628,2.705,0.943
					c0.26,0.328,0.478,0.683,0.683,1.052c1.202,2.199,1.366,4.795,1.448,7.295C311.068,222.67,310.549,232.711,310.303,242.751z"/>
				<path style="fill:#F8E1C6;" d="M275.755,321.601c-4.645-0.301-9.262-1.025-13.784-2.158l-3.989-122.222
					c3.852-1.803,7.978-3.06,12.24-3.757L275.755,321.601z"/>
				<g>
					<path d="M275.756,321.976c-0.2,0-0.366-0.157-0.375-0.359l-5.515-127.713c-4.028,0.695-7.895,1.889-11.5,3.552l3.98,121.975
						c0.007,0.207-0.156,0.38-0.362,0.387c-0.005,0-0.009,0-0.013,0c-0.202,0-0.368-0.16-0.375-0.363l-3.988-122.222
						c-0.005-0.15,0.08-0.288,0.216-0.352c3.855-1.805,8.007-3.079,12.338-3.787c0.106-0.017,0.214,0.011,0.297,0.079
						c0.083,0.068,0.134,0.168,0.139,0.275l5.533,128.137c0.009,0.207-0.152,0.382-0.358,0.391
						C275.766,321.976,275.761,321.976,275.756,321.976z"/>
				</g>
				<path style="fill:#E78995;" d="M270.223,193.464c-1.831,3.661-4.986,6.352-8.224,8.169c-0.82,0.464-1.817,0.874-2.65,0.451
					c-1.134-0.587-1.229-2.213-1.339-3.524c0,0-0.123-1.899-0.273-4.453c-0.205-3.579-0.437-8.415-0.396-11.079h0.014
					c2.841-0.943,5.683-1.885,9.276-2.076c0.205,1.12,0.451,2.213,0.738,3.306c0.123,0.519,0.259,1.038,0.41,1.557
					C268.502,188.382,269.376,190.909,270.223,193.464z"/>
				<path style="fill:#292925;" d="M267.368,184.257c-0.12,0.404-0.278,0.826-0.477,1.269c-0.63,1.397-1.596,2.614-2.698,3.68
					c-1.965,1.902-4.119,3.556-6.428,4.9c-0.178-3.442-0.369-7.841-0.41-11.079c2.841-0.943,5.683-1.885,9.276-2.076
					C266.835,182.071,267.081,183.164,267.368,184.257z"/>
				<path style="fill:#E78995;" d="M248.455,152.758c-3.004,1.57-4.484,28.26-3.527,33.24c0.341,1.774,0.774,3.665,2.1,4.893
					c2.146,1.988,5.585,1.368,8.287,0.247c9.573-3.969,16.921-12.908,18.964-23.068c0.581-2.891,0.737-5.988-0.418-8.701
					c-0.8-1.879-2.189-3.464-3.781-4.743C264.524,150.161,255.898,148.867,248.455,152.758z"/>
				<path style="fill:#292925;" d="M250.641,161.516c-0.767-0.417-4.014,0.788-5.153,0.767c-7.643-0.141-7.144-9.07-1.933-12.462
					c2.87-1.868,6.67,0.28,9.919,0.627c3.606,0.384,7.057-1.228,10.684-1.196c2.991,0.026,6.128,0.148,8.491,2.247
					c1.267,1.125,2.104,2.658,2.729,4.233c3.1,7.82,1.034,17.416-5.01,23.268c-0.759-1.799,0.059-3.821,0.532-5.715
					c0.472-1.894,0.32-4.371-1.454-5.184C267.406,167.166,265.186,169.416,250.641,161.516z"/>
				<g>
					<path style="fill:#E78995;" d="M344.536,283.557c-0.724,3.215-1.447,6.431-2.171,9.646c-0.196,0.87-0.392,1.748-0.386,2.639
						c0.005,0.746,0.152,1.482,0.299,2.213c0.268,1.335,0.535,2.67,0.803,4.005c0.082,0.408,0.176,0.841,0.465,1.14
						c0.26,0.269,0.635,0.385,0.993,0.492c1.235,0.368,2.469,0.736,3.704,1.104c0.296,0.088,0.618,0.176,0.908,0.07
						c0.416-0.152,0.618-0.647,1.02-0.834c1.018-0.474,2.332,1.29,3.124,0.493c0.217-0.219,0.264-0.556,0.444-0.807
						c0.522-0.725,1.654-0.313,2.536-0.458c1.515-0.249,2.094-2.141,2.045-3.675c-0.104-3.218-6.554-16.657-7.951-19.558
						c-1.675-3.477,1.675,3.477,0,0c-2.092,0.351-4.183,0.702-6.275,1.053C344.037,281.72,344.175,282.375,344.536,283.557z"/>
					<path style="fill:#E1570D;" d="M299.195,196.799c-6.767-2.329-14.446,0.88-16.965,7.579c-0.125,0.332-0.236,0.669-0.334,1.011
						c-2.23,7.796,2.579,16.079,8.944,21.102c6.366,5.023,14.179,7.795,21.187,11.873c16.119,9.381,27.757,26.117,31.6,45.112
						c2.591-0.918,5.181-1.836,7.821-2.113c-1.228-15.299-4.297-30.451-9.119-45.022c-2.717-8.211-6.11-16.435-11.983-22.783
						C322.451,205.022,311.132,200.906,299.195,196.799z"/>
					<g>
						<path d="M306.96,236.022c-0.057,0-0.114-0.013-0.169-0.04c-0.934-0.471-1.871-0.933-2.81-1.396
							c-4.571-2.255-9.299-4.587-13.373-7.802c-9.166-7.232-10.616-16.101-9.072-21.499c0.1-0.352,0.215-0.699,0.344-1.04
							c1.434-3.814,4.572-6.712,8.61-7.949c0.2-0.061,0.408,0.05,0.469,0.249c0.061,0.198-0.051,0.408-0.248,0.468
							c-3.814,1.169-6.778,3.902-8.13,7.497c-0.121,0.323-0.23,0.65-0.324,0.982c-1.479,5.175-0.059,13.702,8.816,20.704
							c4.013,3.167,8.703,5.48,13.24,7.718c0.939,0.463,1.88,0.927,2.815,1.398c0.185,0.093,0.259,0.319,0.166,0.504
							C307.228,235.947,307.096,236.022,306.96,236.022z"/>
					</g>
				</g>
				<path style="fill:#E78995;" d="M276.234,178.126c-1.176,2.764-3.776,4.303-5.807,3.439c-2.031-0.864-2.724-3.805-1.548-6.569
					c1.176-2.764,3.776-4.303,5.807-3.439C276.716,172.421,277.41,175.362,276.234,178.126z"/>
				<g>
					<path d="M250.486,178.996c-0.116,0-0.23-0.054-0.304-0.155c-0.085-0.118-0.188-0.22-0.29-0.323
						c-0.092-0.093-0.183-0.186-0.266-0.285c-0.294-0.351-0.421-0.722-0.367-1.073c0.082-0.523,0.511-0.824,0.855-1.066
						c0.605-0.427,1.594-1.286,1.735-2.466c0.024-0.206,0.203-0.35,0.417-0.328c0.205,0.025,0.352,0.211,0.327,0.417
						c-0.13,1.088-0.847,2.143-2.019,2.97c-0.281,0.198-0.542,0.38-0.574,0.587c-0.026,0.175,0.114,0.374,0.201,0.477
						c0.069,0.084,0.147,0.162,0.224,0.24c0.13,0.131,0.257,0.262,0.364,0.411c0.121,0.168,0.084,0.402-0.084,0.524
						C250.639,178.973,250.562,178.996,250.486,178.996z"/>
				</g>
				<path d="M257.706,172.306c-0.879,0-0.88,1.366,0,1.366C258.585,173.672,258.586,172.306,257.706,172.306z"/>
				<path d="M248.964,170.633c-0.879,0-0.881,1.366,0,1.366C249.842,171.999,249.844,170.633,248.964,170.633z"/>
				<g>
					<path d="M250.923,187.114c-0.207,0-0.375-0.168-0.375-0.375s0.168-0.375,0.375-0.375c4.989,0,6.298-3.507,6.605-4.746
						c-3.025-0.055-5.597-0.64-7.326-1.034c-0.509-0.116-0.946-0.216-1.305-0.281c-0.203-0.037-0.339-0.232-0.302-0.437
						c0.037-0.202,0.232-0.335,0.437-0.302c0.366,0.067,0.815,0.169,1.336,0.288c1.784,0.406,4.479,1.02,7.616,1.02
						c0.107,0,0.211,0.046,0.281,0.127c0.071,0.081,0.104,0.189,0.091,0.296C258.347,181.354,257.523,187.114,250.923,187.114z"/>
				</g>
				<g>
					<path d="M270.285,176.665c-0.053,0-0.106-0.011-0.156-0.034c-0.189-0.086-0.271-0.309-0.185-0.497
						c0.362-0.794,1.1-1.395,2.024-1.649c0.923-0.254,1.864-0.117,2.582,0.378c0.171,0.118,0.214,0.351,0.096,0.521
						c-0.117,0.172-0.351,0.213-0.522,0.096c-0.533-0.369-1.248-0.466-1.957-0.273c-0.709,0.196-1.271,0.647-1.542,1.238
						C270.563,176.584,270.427,176.665,270.285,176.665z"/>
				</g>
				<path d="M257.52,169.243c0,0.134,0.026,0.271,0.097,0.384c0.242,0.386,0.808,0.306,1.263,0.333
					c0.461,0.028,0.911,0.224,1.246,0.542c0.223,0.212,0.408,0.485,0.695,0.596c0.494,0.192,1.075-0.249,1.145-0.776
					c0.193-1.449-2.62-2.597-3.741-2.134C257.81,168.36,257.519,168.795,257.52,169.243z"/>
				<path d="M247.645,167.278c0.04,0.128,0.104,0.251,0.205,0.339c0.344,0.298,0.862,0.055,1.305-0.052
					c0.449-0.109,0.936-0.054,1.35,0.153c0.275,0.137,0.532,0.344,0.839,0.366c0.529,0.038,0.954-0.554,0.867-1.077
					c-0.241-1.442-3.266-1.714-4.202-0.942C247.663,166.349,247.512,166.85,247.645,167.278z"/>
				<g>
					<path d="M273.776,259.066c-0.013,0-0.025,0-0.038-0.002c-0.206-0.021-0.356-0.205-0.335-0.411l3.895-38.235l-4.824-1.086
						c-0.149-0.034-0.264-0.155-0.288-0.306s0.046-0.302,0.178-0.381l4.045-2.423l-2.443-23.231
						c-0.022-0.206,0.128-0.39,0.334-0.412c0.205-0.023,0.391,0.128,0.412,0.334l2.469,23.469c0.016,0.145-0.055,0.286-0.181,0.361
						l-3.446,2.064l4.234,0.953c0.186,0.042,0.311,0.215,0.291,0.404l-3.929,38.566C274.13,258.922,273.967,259.066,273.776,259.066
						z"/>
				</g>
				<g>
					<path d="M259.682,260.085c-0.18,0-0.339-0.129-0.37-0.313l-6.209-36.605c-0.022-0.135,0.03-0.272,0.139-0.357l3.291-2.59
						l-3.089-0.243c-0.1-0.008-0.192-0.056-0.258-0.132c-0.064-0.077-0.096-0.176-0.086-0.276l2.1-22.948
						c0.019-0.206,0.189-0.351,0.407-0.339c0.206,0.019,0.358,0.202,0.339,0.408l-2.064,22.57l3.667,0.289
						c0.154,0.012,0.285,0.118,0.33,0.265c0.044,0.148-0.006,0.308-0.128,0.404l-3.87,3.045l6.172,36.386
						c0.034,0.204-0.104,0.397-0.308,0.432C259.723,260.084,259.703,260.085,259.682,260.085z"/>
				</g>
				<g>
					<path d="M225.059,435.77c-0.026,0-0.053-0.003-0.08-0.009c-0.202-0.044-0.33-0.244-0.286-0.446
						c0.182-0.833,18.597-83.58,52.59-111.98c0.159-0.134,0.395-0.112,0.528,0.047c0.133,0.159,0.111,0.395-0.048,0.528
						c-33.799,28.239-52.156,110.735-52.338,111.565C225.387,435.651,225.232,435.77,225.059,435.77z"/>
				</g>
				<g>
					<path d="M310.895,327.213c-7.783,0-13.509-5.047-13.592-5.123c-0.154-0.139-0.166-0.375-0.027-0.529
						c0.14-0.155,0.376-0.167,0.529-0.027c0.485,0.436,12.019,10.577,24.663,0.65c0.162-0.128,0.398-0.099,0.526,0.063
						c0.128,0.163,0.1,0.399-0.063,0.526C318.713,326.086,314.574,327.213,310.895,327.213z"/>
				</g>
				<g>
					<path d="M339.545,346.706c-0.779,0-1.576-0.069-2.389-0.207c-12.203-2.068-24.128-18.71-24.629-19.417
						c-0.12-0.169-0.08-0.403,0.089-0.523c0.168-0.121,0.402-0.081,0.522,0.089c0.121,0.17,12.248,17.096,24.144,19.112
						c3.354,0.567,6.405-0.108,9.073-2.005c14.151-10.063,51.363-40.033,51.737-40.335c0.16-0.129,0.396-0.105,0.527,0.057
						c0.13,0.161,0.105,0.397-0.057,0.527c-0.374,0.302-37.604,30.286-51.773,40.362
						C344.601,345.923,342.173,346.706,339.545,346.706z"/>
				</g>
			</g>
			<g>
				<g>
					<path d="M155.241,136.64c-0.153,0-0.306-0.071-0.403-0.204l-2.563-3.496c-0.163-0.223-0.115-0.536,0.107-0.699
						c0.224-0.164,0.536-0.115,0.699,0.108l2.563,3.495c0.163,0.223,0.115,0.536-0.107,0.699
						C155.448,136.609,155.345,136.64,155.241,136.64z"/>
				</g>
				<g>
					<path d="M152.861,142.539c-0.098,0-0.196-0.028-0.283-0.088l-5.7-3.909c-0.229-0.156-0.286-0.468-0.13-0.695
						c0.156-0.227,0.469-0.285,0.694-0.13l5.702,3.91c0.227,0.156,0.285,0.467,0.129,0.695
						C153.177,142.463,153.02,142.539,152.861,142.539z"/>
				</g>
				<g>
					<path d="M147.212,154.544c-0.042,0-0.084-0.005-0.127-0.016l-6.776-1.777c-0.267-0.07-0.427-0.344-0.356-0.611
						s0.34-0.425,0.61-0.357l6.776,1.777c0.267,0.07,0.427,0.344,0.357,0.611C147.637,154.395,147.433,154.544,147.212,154.544z"/>
				</g>
				<g>
					<path d="M146.167,165.135c-0.013,0-0.025-0.001-0.038-0.001l-5.132-0.387c-0.275-0.021-0.482-0.261-0.462-0.536
						c0.021-0.276,0.264-0.479,0.536-0.461l5.132,0.387c0.275,0.021,0.482,0.261,0.462,0.536
						C146.644,164.935,146.426,165.135,146.167,165.135z"/>
				</g>
				<g>
					<path d="M143.085,174.289c-0.198,0-0.386-0.119-0.464-0.314c-0.103-0.256,0.021-0.547,0.278-0.65l4.379-1.752
						c0.254-0.104,0.547,0.022,0.649,0.278c0.102,0.257-0.021,0.548-0.278,0.65l-4.379,1.752
						C143.21,174.277,143.146,174.289,143.085,174.289z"/>
				</g>
			</g>
		</g>
		<g>
			<g>
				<path style="fill:#F3CB73;" d="M89.848,132.645c0.04-2.154,1.394-4.062,3.4-4.849c8.507-3.34,17.694-4.946,26.831-4.67
					c1.554,0.047,3.184,0.172,4.489,1.015c1.588,1.026,2.378,2.902,2.978,4.694c1.565,4.678,2.454,9.582,2.63,14.512
					c0.029,0.798,0.031,1.632-0.325,2.347c-0.382,0.768-1.12,1.287-1.848,1.741c-7.953,4.97-17.656,6.034-26.987,6.976
					c-2.411,0.243-5.162,0.376-6.906-1.306c-0.923-0.891-1.384-2.146-1.773-3.368C90.604,144.298,89.738,138.585,89.848,132.645z"/>
				<g>
					<path d="M110.381,139.873c-0.725,0-1.456-0.148-2.149-0.453l-18.254-8.025c-0.189-0.083-0.276-0.305-0.192-0.494
						c0.084-0.19,0.306-0.274,0.494-0.192l18.255,8.025c1.802,0.794,3.9,0.35,5.227-1.1l11.651-12.749
						c0.139-0.153,0.377-0.163,0.529-0.024c0.153,0.14,0.164,0.377,0.023,0.53l-11.651,12.748
						C113.281,139.268,111.845,139.873,110.381,139.873z"/>
				</g>
				<g>
					<path d="M95.898,154.544c-0.046,0-0.093-0.008-0.138-0.026c-0.192-0.076-0.287-0.293-0.211-0.486l6.849-17.371
						c0.075-0.193,0.294-0.287,0.486-0.211c0.192,0.076,0.287,0.293,0.211,0.486l-6.849,17.371
						C96.189,154.454,96.048,154.544,95.898,154.544z"/>
				</g>
				<g>
					<path d="M130.106,145.263c-0.093,0-0.185-0.034-0.257-0.102l-12.012-11.327c-0.151-0.142-0.158-0.379-0.016-0.53
						c0.142-0.15,0.38-0.157,0.529-0.016l12.012,11.327c0.151,0.142,0.158,0.379,0.016,0.53
						C130.305,145.223,130.206,145.263,130.106,145.263z"/>
				</g>
			</g>
			<path style="fill:#E78995;" d="M71.157,124.273c-1.655-1.431-3.401-2.909-5.532-3.405c-2.131-0.496-4.748,0.355-5.492,2.413
				c-0.774,2.141,0.759,4.455,2.581,5.819c3.893,2.913,9.05,3.361,13.551,5.199c1.252-4.035,2.239-8.153,2.95-12.318
				c0.199-1.164,0.375-2.368,0.096-3.515c-0.279-1.147-1.122-2.236-2.283-2.45c-0.912-0.169-1.844,0.222-2.6,0.761
				C72.676,118.028,71.583,120.156,71.157,124.273z"/>
			<path style="fill:#E78995;" d="M161.353,296.617c-0.929-1.981-1.921-4.042-3.666-5.363s-4.481-1.61-5.998-0.033
				c-1.579,1.64-1.122,4.378-0.013,6.365c2.369,4.246,6.896,6.756,10.259,10.268c2.787-3.175,5.365-6.534,7.711-10.048
				c0.655-0.982,1.307-2.01,1.519-3.171c0.212-1.161-0.114-2.499-1.087-3.168c-0.765-0.526-1.775-0.549-2.684-0.364
				C165.283,291.533,163.419,293.031,161.353,296.617z"/>
			<path style="fill:#E78995;" d="M148.35,122.278c0.396-1.599,0.792-3.274,0.398-4.873c-0.394-1.599-1.857-3.065-3.492-2.862
				c-1.7,0.211-2.731,2.028-3.024,3.716c-0.627,3.605,0.831,7.219,1.132,10.866c3.135-0.536,6.234-1.278,9.271-2.221
				c0.849-0.264,1.717-0.556,2.391-1.134c0.675-0.578,1.117-1.515,0.865-2.367c-0.198-0.67-0.778-1.162-1.397-1.485
				C153.058,121.168,151.258,121.16,148.35,122.278z"/>
			<path style="fill:#E78995;" d="M188.77,362.605c0.396-1.599,0.792-3.274,0.398-4.873c-0.394-1.599-1.857-3.065-3.492-2.862
				c-1.7,0.211-2.731,2.028-3.024,3.716c-0.627,3.605,0.831,7.219,1.132,10.866c3.135-0.536,6.234-1.278,9.271-2.221
				c0.849-0.263,1.717-0.556,2.391-1.134c0.675-0.578,1.117-1.515,0.865-2.367c-0.198-0.67-0.778-1.162-1.397-1.485
				C193.478,361.495,191.678,361.487,188.77,362.605z"/>
			<g>
				<path style="fill:#E1570D;" d="M114.995,64.241c12.669,1.816,18.476,18.319,16.516,34.142c-0.34,2.742-1.398,5.383-3.183,7.493
					c-5.953,7.033-15.654,3.517-23.73,5.544c0.588,1.64,0.74,3.429,0.463,5.148c-0.152,0.944-1.332,1.255-1.926,0.505
					c-3.647-4.606-10.173-6.456-16.16-7.343c-6.744-0.999-14.043-1.533-19.291-5.885c-6.16-5.108-7.593-13.919-7.758-21.92
					c-0.106-5.141,0.339-10.797,3.919-14.492C71.264,59.779,110.707,63.626,114.995,64.241z"/>
				<path style="fill:#F8E1C6;" d="M87.855,74.636c-0.727-0.225-1.436,0.473-1.418,1.234c0.161,6.755,0.743,13.5,1.742,20.183
					c0.048,0.318,0.124,0.679,0.403,0.84c0.253,0.146,0.571,0.064,0.851-0.022c6.866-2.121,13.421-5.243,19.394-9.239
					c0.495-0.331,0.929-0.764,1.19-1.299c0.804-1.647-0.268-3.093-1.579-3.661C103.146,80.38,99.854,78.353,87.855,74.636z"/>
			</g>
			<g>
				<path style="fill:#7F95FF;" d="M137.385,172.776c-0.695-1.029-1.464-2.01-2.309-2.942c1.02-0.87,1.848-1.982,2.403-3.191
					c0.353-0.78-0.359-1.595-1.179-1.339c-1.868,0.599-3.85,0.713-5.854,0.501c-0.101-0.081-0.208-0.153-0.315-0.225
					c-3.959-2.648-8.349-4.103-12.789-4.449c-9.395-0.767-18.909,3.454-24.525,11.849c-3.998,5.977-5.282,12.98-4.128,19.567
					c1.206,6.974,5.168,13.478,11.535,17.738c8.775,5.871,19.766,5.898,28.347,0.983c3.485-2.002,6.574-4.805,8.961-8.373
					C143.827,193.486,143.4,181.57,137.385,172.776z"/>
				<path style="fill:#F8E1C6;" d="M130.058,195.063l1.461-4.492l-3.878-1.704c0.004-0.153,0.007-0.309,0.007-0.465
					c0-0.541-0.033-1.072-0.102-1.595l3.859-1.85l-1.461-4.492l-4.43,0.963c-0.342-0.505-0.72-0.985-1.127-1.436l2.166-4.005
					l-3.823-2.776l-3.14,3.525c-0.52-0.196-1.058-0.36-1.61-0.487l-0.621-4.666h-4.724l-0.473,4.717
					c-0.552,0.138-1.087,0.309-1.606,0.516l-3.227-3.391l-3.823,2.777l2.315,3.958c-0.403,0.458-0.774,0.945-1.108,1.461
					l-4.415-0.81l-1.457,4.492l3.943,1.73c-0.051,0.451-0.076,0.908-0.076,1.37c0,0.236,0.007,0.472,0.018,0.705l-3.776,1.81
					l1.461,4.492l3.921-0.854c0.382,0.676,0.825,1.312,1.326,1.901l-1.857,3.431l3.823,2.777l2.533-2.842
					c0.749,0.331,1.534,0.589,2.348,0.763L113,204.29h4.724l0.374-3.761c0.811-0.193,1.588-0.465,2.33-0.811l2.598,2.729
					l3.823-2.777l-1.991-3.409c0.487-0.596,0.916-1.239,1.286-1.919L130.058,195.063z M116.946,193.388h-3.536l-2.867-2.082
					l-1.098-3.369l1.094-3.369l2.871-2.082h3.536l2.871,2.082l1.094,3.369l-1.098,3.369L116.946,193.388z"/>
			</g>
			<path style="fill:#F3CB73;" d="M72.829,186.929l3.151,3.207c0.185,0.188,0.451,0.274,0.712,0.228l4.428-0.778
				c0.656-0.115,1.159,0.572,0.851,1.162l-2.076,3.988c-0.122,0.234-0.121,0.514,0.003,0.748l2.108,3.971
				c0.312,0.588-0.185,1.279-0.842,1.169l-4.435-0.742c-0.261-0.044-0.526,0.044-0.71,0.234l-3.126,3.232
				c-0.463,0.479-1.273,0.219-1.372-0.44l-0.664-4.447c-0.039-0.262-0.204-0.487-0.442-0.603l-4.04-1.974
				c-0.598-0.292-0.601-1.144-0.006-1.441l4.024-2.006c0.237-0.118,0.4-0.345,0.437-0.606l0.629-4.452
				C71.554,186.72,72.363,186.454,72.829,186.929z"/>
			<path style="fill:#F3CB73;" d="M161.924,358.01l2.725,2.773c0.16,0.163,0.39,0.237,0.616,0.197l3.829-0.672
				c0.567-0.1,1.002,0.494,0.736,1.005l-1.795,3.449c-0.106,0.203-0.105,0.444,0.003,0.646l1.823,3.434
				c0.27,0.509-0.16,1.106-0.728,1.011l-3.835-0.642c-0.225-0.038-0.455,0.038-0.614,0.202l-2.703,2.795
				c-0.4,0.414-1.101,0.189-1.186-0.38l-0.574-3.845c-0.034-0.226-0.177-0.421-0.382-0.521l-3.493-1.707
				c-0.517-0.253-0.52-0.989-0.005-1.246l3.48-1.735c0.205-0.102,0.346-0.298,0.378-0.524l0.544-3.85
				C160.822,357.83,161.521,357.599,161.924,358.01z"/>
			<path style="fill:#F3CB73;" d="M87.13,258.277l1.031,4.376c0.061,0.257,0.244,0.468,0.49,0.564l4.19,1.631
				c0.62,0.242,0.695,1.09,0.125,1.435l-3.843,2.333c-0.226,0.137-0.37,0.377-0.385,0.641l-0.257,4.489
				c-0.038,0.665-0.822,0.997-1.326,0.563l-3.407-2.934c-0.2-0.173-0.473-0.236-0.728-0.168l-4.349,1.143
				c-0.644,0.169-1.202-0.473-0.945-1.087l1.738-4.147c0.102-0.244,0.078-0.522-0.065-0.745l-2.431-3.783
				c-0.36-0.56,0.079-1.29,0.742-1.235l4.481,0.372c0.263,0.022,0.521-0.087,0.688-0.292l2.846-3.481
				C86.148,257.437,86.978,257.629,87.13,258.277z"/>
			<g>
				<path style="fill:#528987;" d="M72.72,156.924c0.139,1.136,0.196,2.284,0.172,3.443c1.236-0.011,2.484,0.262,3.602,0.768
					c0.717,0.33,0.715,1.327-0.011,1.645c-1.662,0.713-3.11,1.831-4.377,3.19c-0.021,0.118-0.052,0.232-0.084,0.347
					c-1.154,4.236-3.33,7.903-6.212,10.828c-6.075,6.213-15.248,9.027-24.232,6.579c-6.396-1.743-11.523-5.841-14.702-11.123
					c-3.377-5.583-4.551-12.505-2.695-19.318c2.558-9.391,10.191-16.054,19.135-17.821c3.635-0.713,7.48-0.63,11.299,0.411
					C64.683,138.617,71.59,147.167,72.72,156.924z"/>
				<g>
					<path style="fill:#F8E1C6;" d="M41.179,159.163c0,2.3-1.865,4.165-4.165,4.165c-2.3,0-4.165-1.865-4.165-4.165
						c0-2.3,1.865-4.165,4.165-4.165C39.315,154.997,41.179,156.862,41.179,159.163z"/>
					<path style="fill:#F8E1C6;" d="M52.223,159.163c0,2.3-1.865,4.165-4.165,4.165c-2.3,0-4.165-1.865-4.165-4.165
						c0-2.3,1.865-4.165,4.165-4.165C50.358,154.997,52.223,156.862,52.223,159.163z"/>
					<path style="fill:#F8E1C6;" d="M63.267,159.163c0,2.3-1.865,4.165-4.165,4.165c-2.3,0-4.165-1.865-4.165-4.165
						c0-2.3,1.865-4.165,4.165-4.165C61.402,154.997,63.267,156.862,63.267,159.163z"/>
				</g>
			</g>
			<g>
				<path style="fill:#F3CB73;" d="M46.778,108.619c-2.788,0-2.793,4.333,0,4.333C49.567,112.952,49.571,108.619,46.778,108.619z"/>
				<path style="fill:#F3CB73;" d="M37.691,119.111c-4.88,0-4.888,7.583,0,7.583C42.571,126.694,42.579,119.111,37.691,119.111z"/>
				<path style="fill:#F3CB73;" d="M52.079,191.053c-4.88,0-4.888,7.583,0,7.583C56.959,198.636,56.967,191.053,52.079,191.053z"/>
				<path style="fill:#F3CB73;" d="M150.526,180.561c-2.788,0-2.793,4.333,0,4.333C153.314,184.894,153.319,180.561,150.526,180.561
					z"/>
				<path style="fill:#F3CB73;" d="M145.225,90.118c-4.182,0-4.189,6.5,0,6.5C149.408,96.618,149.415,90.118,145.225,90.118z"/>
				<path style="fill:#F3CB73;" d="M161.128,112.406c-2.788,0-2.793,4.333,0,4.333C163.916,116.739,163.921,112.406,161.128,112.406
					z"/>
				<path style="fill:#F3CB73;" d="M52.079,93.258c-2.091,0-2.095,3.25,0,3.25C54.171,96.508,54.174,93.258,52.079,93.258z"/>
				<path style="fill:#F3CB73;" d="M139.924,140.751c-1.394,0-1.396,2.167,0,2.167C141.318,142.918,141.321,140.751,139.924,140.751
					z"/>
				<path style="fill:#F3CB73;" d="M132.351,155.139c-1.394,0-1.396,2.167,0,2.167C133.746,157.306,133.748,155.139,132.351,155.139
					z"/>
				<path style="fill:#F3CB73;" d="M80.856,146.268c-2.091,0-2.095,3.25,0,3.25C82.947,149.518,82.951,146.268,80.856,146.268z"/>
				<path style="fill:#F3CB73;" d="M83.885,171.584c-0.697,0-0.698,1.083,0,1.083C84.582,172.667,84.583,171.584,83.885,171.584z"/>
				<path style="fill:#F3CB73;" d="M108.381,231.47c-3.861,0-3.867,6,0,6C112.242,237.47,112.248,231.47,108.381,231.47z"/>
				<path style="fill:#F3CB73;" d="M178.633,265.023c-3.861,0-3.867,6,0,6C182.494,271.023,182.5,265.023,178.633,265.023z"/>
				<path style="fill:#F3CB73;" d="M147.177,332.13c-3.861,0-3.867,6,0,6C151.038,338.13,151.044,332.13,147.177,332.13z"/>
				<path style="fill:#F3CB73;" d="M145.08,205.208c-2.574,0-2.578,4,0,4C147.654,209.208,147.658,205.208,145.08,205.208z"/>
				<path style="fill:#F3CB73;" d="M119.915,279.655c-2.574,0-2.578,4,0,4C122.489,283.655,122.493,279.655,119.915,279.655z"/>
				<path style="fill:#F3CB73;" d="M83.216,304.319c-3.217,0-3.223,5,0,5C86.433,309.319,86.439,304.319,83.216,304.319z"/>
				<path style="fill:#F3CB73;" d="M162.905,333.679c-3.217,0-3.223,5,0,5C166.122,338.679,166.128,333.679,162.905,333.679z"/>
				<path style="fill:#F3CB73;" d="M169.08,381.015c-3.217,0-3.223,5,0,5C172.297,386.015,172.302,381.015,169.08,381.015z"/>
				<path style="fill:#F3CB73;" d="M150.556,313.625c-1.287,0-1.289,2,0,2C151.843,315.625,151.845,313.625,150.556,313.625z"/>
				<path style="fill:#F3CB73;" d="M103.488,251.179c-1.287,0-1.289,2,0,2C104.775,253.179,104.777,251.179,103.488,251.179z"/>
				<path style="fill:#F3CB73;" d="M162.188,200.532c-0.04-0.124-0.109-0.231-0.207-0.322c-0.091-0.098-0.198-0.166-0.322-0.207
					c-0.119-0.063-0.248-0.091-0.385-0.086c-0.089,0.012-0.177,0.024-0.266,0.036c-0.169,0.048-0.316,0.133-0.441,0.257
					c-0.052,0.068-0.104,0.135-0.156,0.202c-0.09,0.156-0.136,0.324-0.137,0.505v0.466c-0.005,0.138,0.023,0.266,0.086,0.385
					c0.04,0.124,0.109,0.231,0.207,0.322c0.091,0.098,0.198,0.166,0.322,0.207c0.119,0.063,0.248,0.091,0.385,0.086l0.266-0.036
					c0.169-0.048,0.316-0.133,0.441-0.257c0.052-0.067,0.104-0.135,0.156-0.202c0.09-0.156,0.136-0.324,0.136-0.505v-0.466
					C162.279,200.779,162.251,200.651,162.188,200.532z"/>
				<path style="fill:#F3CB73;" d="M89.041,212.033c-1.287,0-1.289,2,0,2C90.328,214.033,90.33,212.033,89.041,212.033z"/>
			</g>
			<g>
				<path style="fill:#7F95FF;" d="M138.513,313.089c0,7.29-3.34,13.8-8.58,18.08c-4.02,3.29-9.16,5.26-14.75,5.26
					c-5.6,0-10.74-1.97-14.76-5.27c-5.24-4.28-8.58-10.78-8.58-18.07c0-12.89,10.45-23.33,23.34-23.33
					C128.063,289.759,138.513,300.199,138.513,313.089z"/>
				<path style="fill:#FFFFFF;" d="M129.933,327.969v3.2c-4.02,3.29-9.16,5.26-14.75,5.26c-5.6,0-10.74-1.97-14.76-5.27v-3.19
					c0-5.29,4.28-9.58,9.57-9.58h1.63c-3.38-1.39-5.77-4.73-5.77-8.62c0-5.15,4.18-9.32,9.33-9.32c5.14,0,9.32,4.17,9.32,9.32
					c0,3.89-2.39,7.23-5.77,8.62h1.63C125.653,318.389,129.933,322.679,129.933,327.969z"/>
			</g>
			<g>
				<path style="fill:#528987;" d="M208.539,327.363c0,5.62-2.575,10.639-6.615,13.939c-3.099,2.536-7.062,4.055-11.371,4.055
					c-4.317,0-8.28-1.519-11.379-4.063c-4.04-3.3-6.615-8.311-6.615-13.931c0-9.938,8.056-17.986,17.994-17.986
					C200.483,309.377,208.539,317.425,208.539,327.363z"/>
				<path style="fill:#F8E1C6;" d="M201.924,338.835v2.467c-3.099,2.536-7.062,4.055-11.371,4.055c-4.317,0-8.28-1.519-11.379-4.063
					v-2.459c0-4.078,3.3-7.386,7.378-7.386h1.257c-2.606-1.072-4.448-3.647-4.448-6.646c0-3.97,3.223-7.185,7.193-7.185
					c3.963,0,7.185,3.215,7.185,7.185c0,2.999-1.843,5.574-4.448,6.646h1.257C198.625,331.449,201.924,334.756,201.924,338.835z"/>
			</g>
			<g>
				
					<ellipse transform="matrix(0.974 -0.2266 0.2266 0.974 -52.733 40.1245)" style="fill:#F3CB73;" cx="148.365" cy="249.7" rx="22.501" ry="23.433"/>
				<g>
					<g>
						<path d="M133.768,247.634c-0.08,0-0.16-0.01-0.241-0.031c-0.52-0.132-0.834-0.661-0.701-1.181
							c0.633-2.485,2.535-4.38,4.964-4.945c2.43-0.564,4.973,0.295,6.638,2.245c0.349,0.408,0.3,1.021-0.108,1.37
							c-0.406,0.348-1.022,0.301-1.37-0.108c-1.191-1.396-3.001-2.013-4.718-1.614c-1.72,0.4-3.069,1.753-3.523,3.532
							C134.597,247.341,134.202,247.634,133.768,247.634z"/>
					</g>
					<g>
						<path d="M150.2,243.81c-0.08,0-0.16-0.01-0.241-0.031c-0.52-0.132-0.834-0.661-0.701-1.181
							c0.633-2.485,2.535-4.38,4.964-4.945c2.434-0.565,4.973,0.295,6.638,2.245c0.349,0.408,0.3,1.021-0.108,1.37
							c-0.407,0.346-1.021,0.3-1.37-0.108c-1.191-1.396-3.001-2.014-4.718-1.614c-1.72,0.4-3.069,1.753-3.522,3.532
							C151.028,243.517,150.634,243.81,150.2,243.81z"/>
					</g>
				</g>
				<path style="fill:#FFFFFF;" d="M133.151,253.25c2.052,8.73,10.503,14.222,18.895,12.269c8.392-1.953,13.55-10.612,11.536-19.351
					L133.151,253.25z"/>
			</g>
			<g>
				<path style="fill:#E78995;" d="M51.142,227.462c0.234-0.067,0.471-0.128,0.711-0.167c0.223-0.036,0.349-0.144,0.447-0.353
					c1.248-2.669,2.502-5.335,3.766-7.996c0.283-0.595,0.342-1.192,0.188-1.828c-0.294-1.208-0.577-2.419-0.862-3.629
					c-0.21-0.892,0.103-1.441,0.972-1.693c0.283-0.082,0.57-0.154,0.859-0.206c2.307-0.417,4.315,0.641,5.231,2.798
					c0.74,1.741,0.999,3.596,1.173,5.462c0.029,0.314,0.101,0.336,0.377,0.27c2.692-0.649,5.387-1.282,8.08-1.924
					c0.339-0.081,0.679-0.137,1.026-0.119c1.364,0.069,2.394,0.69,3.024,1.907c0.633,1.224,0.503,2.422-0.214,3.574
					c-0.092,0.148-0.211,0.247-0.034,0.45c0.909,1.045,1.38,3.149,0.272,4.681c-0.115,0.159-0.14,0.269-0.006,0.428
					c0.5,0.594,0.759,1.296,0.885,2.054c0.187,1.134-0.077,2.142-0.882,2.97c-0.223,0.23-0.225,0.358-0.06,0.623
					c1.301,2.093,0.257,4.752-2.128,5.333c-4.209,1.026-8.427,2.021-12.647,2.999c-1.62,0.376-3.102,0.026-4.372-1.078
					c-0.136-0.118-0.243-0.099-0.381-0.066c-0.75,0.179-1.499,0.366-2.253,0.528l-3.541-14.93
					C50.89,227.534,51.011,227.499,51.142,227.462z"/>
				<path style="fill:#7F95FF;" d="M40.096,225.643l7.647-1.814c1.124-0.266,2.25,0.428,2.517,1.552l0.514,2.169l3.541,14.93
					l0.048,0.204c0.102,0.432,0.061,0.862-0.091,1.246c-0.242,0.615-0.769,1.107-1.461,1.271l-0.719,0.171l-6.574,1.559
					l-0.353,0.084c-1.123,0.266-2.25-0.428-2.517-1.552c0,0,0,0,0,0l-4.104-17.302C38.277,227.036,38.972,225.91,40.096,225.643z"/>
				<path style="fill:#010101;" d="M46.144,242.359c0.237,1,1.241,1.619,2.241,1.382c1-0.237,1.619-1.241,1.382-2.241
					c-0.237-1-1.241-1.619-2.241-1.382C46.525,240.355,45.907,241.358,46.144,242.359z"/>
			</g>
			<g>
				<path style="fill:#E1570D;" d="M137.39,356.728c0.589,0.982,1.108,2.007,1.557,3.076c1.125-0.513,2.376-0.771,3.603-0.763
					c0.789,0.01,1.192,0.921,0.659,1.507c-1.229,1.327-2.097,2.938-2.702,4.694c0.029,0.116,0.047,0.234,0.065,0.351
					c0.669,4.34,0.172,8.574-1.271,12.418c-3.023,8.147-10.259,14.449-19.462,15.866c-6.552,1.009-12.902-0.649-17.955-4.182
					c-5.356-3.727-9.244-9.573-10.319-16.552c-1.482-9.62,2.781-18.811,10.233-24.063c3.031-2.13,6.577-3.617,10.489-4.22
					C122.602,343.272,132.389,348.275,137.39,356.728z"/>
				<g>
					<g>
						<path style="fill:#FFFFFF;" d="M114.24,377.276c-2.946,0-5.716-1.147-7.799-3.231c-4.3-4.3-4.3-11.297,0-15.598
							c4.3-4.3,11.297-4.3,15.598,0l0,0c4.3,4.301,4.3,11.297,0,15.598C119.956,376.129,117.186,377.276,114.24,377.276z
							 M114.24,357.015c-2.365,0-4.73,0.9-6.531,2.7c-3.601,3.601-3.601,9.461,0,13.062c3.601,3.601,9.46,3.601,13.062,0
							c3.601-3.601,3.601-9.461,0-13.062C118.971,357.915,116.606,357.015,114.24,357.015z"/>
					</g>
					<g>
						<path style="fill:#FFFFFF;" d="M130.164,383.515c-0.344,0-0.688-0.131-0.951-0.394l-8.125-8.125
							c-0.525-0.525-0.525-1.377,0-1.902c0.525-0.525,1.377-0.525,1.902,0l8.125,8.125c0.525,0.525,0.525,1.377,0,1.902
							C130.852,383.384,130.508,383.515,130.164,383.515z"/>
					</g>
					<path style="fill:#FFFFFF;" d="M114.81,359.577c-1.224,1.224,0.676,3.128,1.902,1.902
						C117.936,360.255,116.036,358.351,114.81,359.577z"/>
				</g>
			</g>
		</g>
	</g>
</g>
</svg>
